{
.appVersion = "3133";
.formatVersion = 3;
DisplayStrings = (
"//",
"The Great Unprinted//
Let us 
now Print 
Famous 
Books ",
"/p.ss01",
"p/p.ss02 qjgyo",
"TA/j.ss02",
g,
TA,
y,
"/y.ss02",
"/q.ss02",
"The Great
Un/p.ss03/y.ss03 yrinted p",
"/y.ss03",
"annaPimlzypu
aPnimlid AT",
"oooooooooo 
nnnnnnnnnn
nonononono
ananananan
oaoaoaoaoa
hhhhhkkkk
nlnlnlnlnl
oliolololololnzno0odpq

ooooooooo
nnnnnnnnn
00000000
10101010101
2020202020
303030303
40404040
505050505
60606060606"
);
customParameters = (
{
name = vendorID;
value = "    ";
},
{
name = panose;
value = (
0,
0,
0,
0,
0,
0,
0,
0,
0,
0
);
},
{
name = unicodeRanges;
value = (
0
);
},
{
name = codePageRanges;
value = (
"1252"
);
},
{
name = fsType;
value = (
2
);
},
{
name = blueScale;
value = 0.03712;
},
{
disabled = 1;
name = glyphOrder;
value = (
.notdef,
space,
.null,
uni000D,
a,
e,
b,
n,
i,
o,
c,
d,
m,
p,
q,
r,
s,
k,
l,
f,
t,
u,
g,
h,
zero,
b.ss01,
q.ss03,
bdpq_comp,
halfserif_lc,
serif_lc,
seriftop_lc,
shoulder,
v,
w,
y,
B,
K,
L,
C,
O,
I,
R,
E,
M,
yen,
S,
j,
z,
A,
F,
G,
P,
D,
H,
T,
N,
U,
V,
W,
J,
X,
Y,
Q,
Z,
x,
one,
two,
three,
four,
six,
five,
nine,
seven,
eight,
udieresis,
adieresis,
exclam,
period,
question,
odieresis,
comma,
quotedbl,
semicolon,
at,
Oacute,
asterisk,
plus,
hyphen,
underscore,
slash,
numbersign,
asciicircum,
less,
greater,
colon,
equal,
parenright,
parenleft,
quotedblleft,
quotedblright,
bracketleft,
divide,
quotesingle,
quotedblbase,
bracketright,
Odieresis,
Udieresis,
Adieresis,
guillemotleft,
guillemotright,
germandbls,
tilde,
emdash
);
}
);
date = "2022-10-12 10:33:31 +0000";
familyName = Heiermann;
featurePrefixes = (
{
automatic = 1;
code = "languagesystem DFLT dflt;
";
name = Languagesystems;
}
);
features = (
{
automatic = 1;
code = "feature ss01;
feature ss02;
feature ss03;
";
tag = aalt;
},
{
automatic = 1;
code = "sub b by b.ss01;
sub p by p.ss01;
";
tag = ss01;
},
{
automatic = 1;
code = "sub g by g.ss02;
sub j by j.ss02;
sub p by p.ss02;
sub q by q.ss02;
sub y by y.ss02;
";

glyphs = (
{
glyphname = A;
kernLeft = "0";
kernRight = "0";
lastChange = "2020-07-24 12:08:21 +0000";
layers = (
{
hints = (
{
horizontal = 1;
place = (0, 21);
target = up;
type = BottomGhost;
},
{
horizontal = 1;
place = (214, 100);
place = (214, 100);
type = Stem;
},
{
horizontal = 1;
place = (610, 90);
place = (610, 90);
type = Stem;
},
{
place = (-18, 721);
place = (-18, 721);
type = Stem;
}
);
layerId = m01;
shapes = (
{
closed = 1;
nodes = (
(203,161,l),
(203,159,o),
(203,158,o),
(202,157,c),
(202,155,o),
(201,154,o),
(201,152,c),
(216,203,o),
(227,230,o),
(265,230,cs),
(364,230,ls),
(415,230,o),
(438,239,o),
(446,256,c),
(495,83,ls),
(496,80,o),
(497,77,o),
(497,74,cs),
(497,65,o),
(486,59,o),
(480,54,cs),
(474,49,o),
(468,43,o),
(468,32,cs),
(468,7,o),
(489,0,o),
(511,0,cs),
(657,0,ls),
(671,0,o),
(691,1,o),
(691,20,cs),
(691,34,o),
(680,44,o),
(667,52,cs),
(629,76,o),
(616,110,o),
(605,146,cs),
(466,622,ls),
(459,647,o),
(490,649,o),
(490,673,cs),
(490,695,o),
(470,700,o),
(448,700,cs),
(247,700,ls),
(225,700,o),
(205,696,o),
(205,674,cs),
(205,651,o),
(240,650,o),
(232,623,cs),
(77,92,ls),
(72,74,o),
(55,63,o),
(42,54,cs),
(29,46,o),
(15,34,o),
(15,20,cs),
(15,1,o),
(35,0,o),
(49,0,cs),
(165,0,ls),
(187,0,o),
(208,7,o),
(208,32,cs),
(208,56,o),
(179,58,o),
(179,74,cs),
(179,77,o),
(180,80,o),
(181,83,cs)
);
},
{
closed = 1;
nodes = (
(330,600,ls),
(332,608,o),
(334,610,o),
(338,610,cs),
(342,610,o),
(345,609,o),
(347,600,cs),
(404,400,ls),
(425,326,o),
(404,325,o),
(351,325,cs),
(304,325,ls),
(275,325,o),
(258,323,o),
(248,315,c)
);
}
);
width = 706;
}
);
note = A;
unicode = 65;
userData = {
KernOnName = A;
};
},
{
glyphname = Adieresis;
kernLeft = "0";
kernRight = "0";
lastChange = "2020-07-24 12:08:21 +0000";
layers = (
{
hints = (
{
horizontal = 1;
place = (0, 21);
target = up;
type = BottomGhost;
},
{
horizontal = 1;
place = (214, 100);
place = (214, 100);
type = Stem;
},
{
horizontal = 1;
place = (610, 90);
place = (610, 90);
type = Stem;
},
{
place = (-18, 721);
place = (-18, 721);
type = Stem;
}
);
layerId = m01;
shapes = (
{
closed = 1;
nodes = (
(330,600,ls),
(332,608,o),
(334,610,o),
(338,610,cs),
(342,610,o),
(345,609,o),
(347,600,cs),
(495,83,ls),
(496,80,o),
(497,77,o),
(497,74,cs),
(497,65,o),
(486,59,o),
(480,54,cs),
(474,49,o),
(468,43,o),
(468,32,cs),
(468,7,o),
(489,0,o),
(511,0,cs),
(657,0,ls),
(671,0,o),
(691,1,o),
(691,20,cs),
(691,34,o),
(680,44,o),
(667,52,cs),
(629,76,o),
(616,110,o),
(605,146,cs),
(466,622,ls),
(459,647,o),
(490,649,o),
(490,673,cs),
(490,695,o),
(470,700,o),
(448,700,cs),
(322,700,l),
(247,700,ls),
(225,700,o),
(205,696,o),
(205,674,cs),
(205,651,o),
(240,650,o),
(232,623,cs),
(77,92,ls),
(72,74,o),
(55,63,o),
(42,54,cs),
(29,46,o),
(15,34,o),
(15,20,cs),
(15,1,o),
(35,0,o),
(49,0,cs),
(93,0,l),
(165,0,ls),
(187,0,o),
(208,7,o),
(208,32,cs),
(208,56,o),
(179,58,o),
(179,74,cs),
(179,77,o),
(180,80,o),
(181,83,cs)
);
},
{
closed = 1;
nodes = (
(426,326,o),
(406,325,o),
(351,325,cs),
(304,325,ls),
(244,325,o),
(237,314,o),
(230,271,cs),
(229,266,o),
(190,257,o),
(189,251,cs),
(184,226,o),
(216,197,o),
(201,152,c),
(216,202,o),
(227,230,o),
(265,230,cs),
(364,230,ls),
(500,230,o),
(439,291,o),
(402,408,c)
);
},
{
closed = 1;
nodes = (
(173,787,o),
(208,758,o),
(242,758,cs),
(276,758,o),
(311,787,o),
(311,827,cs),
(311,866,o),
(276,896,o),
(242,896,cs),
(208,896,o),
(173,866,o),
(173,827,cs)
);
},
{
closed = 1;
nodes = (
(381,787,o),
(416,758,o),
(450,758,cs),
(484,758,o),
(519,787,o),
(519,827,cs),
(519,866,o),
(484,896,o),
(450,896,cs),
(416,896,o),
(381,866,o),
(381,827,cs)
);
}
);
width = 706;
}
);
note = Adieresis;
unicode = 196;
},
{
glyphname = B;
kernLeft = "0";
kernRight = "0";
lastChange = "2020-07-24 12:08:21 +0000";
layers = (
{
hints = (
{
horizontal = 1;
place = (0, 83);
place = (0, 83);
type = Stem;
},
{
horizontal = 1;
place = (615, 85);
place = (615, 85);
type = Stem;
},
{
place = (696, 123);
place = (696, 123);
type = Stem;
},
{
place = (1084, 135);
place = (1084, 135);
type = Stem;
}
);
layerId = m01;
shapes = (
{
closed = 1;
nodes = (
(194,209,ls),
(194,278,o),
(230,309,o),
(293,309,cs),
(317,309,ls),
(392,309,o),
(451,275,o),
(451,199,cs),
(451,109,o),
(394,81,o),
(325,81,cs),
(290,81,o),
(194,76,o),
(194,116,cs)
);
},
{
closed = 1;
nodes = (
(199,600,ls),
(199,614,o),
(226,615,o),
(256,615,cs),
(295,615,ls),
(380,615,o),
(404,576,o),
(404,517,cs),
(404,423,o),
(281,404,o),
(199,379,c)
);
},
{
closed = 1;
nodes = (
(474,381,o),
(529,436,o),
(529,521,cs),
(529,653,o),
(427,700,o),
(294,700,cs),
(76,700,ls),
(60,700,o),
(35,699,o),
(35,675,cs),
(35,645,o),
(76,647,o),
(76,617,cs),
(76,83,ls),
(76,53,o),
(37,55,o),
(37,25,cs),
(37,1,o),
(62,0,o),
(78,0,cs),
(285,0,ls),
(385,0,o),
(576,-5,o),
(576,202,cs),
(576,311,o),
(464,360,o),
(394,360,c)
);
}
);
width = 606;
}
);
note = B;
unicode = 66;
},
{
glyphname = C;
kernLeft = "0";
kernRight = "0";
lastChange = "2020-07-24 12:08:21 +0000";
layers = (
{
hints = (
{
horizontal = 1;
place = (-8, 99);
place = (-8, 99);
type = Stem;
},
{
horizontal = 1;
place = (613, 99);
place = (613, 99);
type = Stem;
},
{
place = (30, 160);
place = (30, 160);
type = Stem;
},
{
place = (456, 182);
place = (456, 182);
type = Stem;
}
);
layerId = m01;
shapes = (
{
closed = 1;
nodes = (
(638,235,o),
(620,270,o),
(566,270,cs),
(509,270,o),
(496,231,o),
(496,204,cs),
(496,181,o),
(506,168,o),
(506,152,cs),
(506,108,o),
(430,71,o),
(364,71,cs),
(230,71,o),
(170,224,o),
(170,350,cs),
(170,497,o),
(246,621,o),
(362,621,cs),
(462,621,o),
(461,506,o),
(557,506,cs),
(594,506,o),
(624,535,o),
(624,581,cs),
(624,626,o),
(581,712,o),
(515,712,cs),
(471,712,o),
(458,685,o),
(433,685,cs),
(412,685,o),
(404,706,o),
(355,706,cs),
(206,706,o),
(30,564,o),
(30,350,cs),
(30,134,o),
(172,-8,o),
(357,-8,cs),
(433,-8,o),
(499,16,o),
(534,36,cs),
(590,69,o),
(638,131,o),
(638,196,cs)
);
}
);
width = 657;
}
);
note = C;
unicode = 67;
userData = {
KernOnName = C;
};
},
{
glyphname = D;
kernLeft = "0";
kernRight = "0";
lastChange = "2020-07-24 12:08:21 +0000";
layers = (
{
hints = (
{
horizontal = 1;
place = (0, 82);
place = (0, 82);
type = Stem;
},
{
horizontal = 1;
place = (616, 84);
place = (616, 84);
type = Stem;
},
{
place = (74, 122);
place = (74, 122);
type = Stem;
},
{
place = (451, 150);
place = (451, 150);
type = Stem;
}
);
layerId = m01;
shapes = (
{
closed = 1;
nodes = (
(279,0,ls),
(453,0,o),
(600,133,o),
(600,349,cs),
(600,565,o),
(453,700,o),
(279,700,cs),
(76,700,ls),
(60,700,o),
(35,699,o),
(35,675,cs),
(35,645,o),
(74,647,o),
(74,617,cs),
(74,83,ls),
(74,53,o),
(35,55,o),
(35,25,cs),
(35,1,o),
(60,0,o),
(76,0,cs)
);
},
{
closed = 1;
nodes = (
(259,82,o),
(243,82,o),
(229,82,cs),
(211,82,o),
(197,88,o),
(197,101,cs),
(197,298,o),
(196,397,o),
(196,597,cs),
(196,610,o),
(210,616,o),
(229,616,cs),
(243,616,o),
(259,616,o),
(274,616,cs),
(377,616,o),
(461,490,o),
(461,347,cs),
(461,204,o),
(377,82,o),
(274,82,cs)
);
}
);
width = 631;
}
);
note = D;
unicode = 68;
},
{
glyphname = E;
kernLeft = "0";
kernRight = "0";
lastChange = "2020-07-24 12:08:21 +0000";
layers = (
{
hints = (
{
horizontal = 1;
place = (0, 72);
place = (0, 72);
type = Stem;
},
{
horizontal = 1;
place = (342, 159);
place = (342, 159);
type = Stem;
},
{
horizontal = 1;
place = (629, 71);
place = (629, 71);
type = Stem;
},
{
place = (74, 123);
place = (74, 123);
type = Stem;
}
);
layerId = m01;
shapes = (
{
closed = 1;
nodes = (
(74,83,ls),
(74,53,o),
(35,55,o),
(35,25,cs),
(35,1,o),
(60,0,o),
(76,0,cs),
(425,0,ls),
(492,0,o),
(544,38,o),
(544,96,cs),
(544,148,o),
(517,174,o),
(481,174,cs),
(397,174,o),
(427,73,o),
(300,72,cs),
(250,72,o),
(197,68,o),
(197,101,cs),
(197,267,ls),
(197,309,o),
(217,369,o),
(277,369,cs),
(311,369,o),
(329,335,o),
(376,335,cs),
(413,335,o),
(444,354,o),
(444,398,cs),
(444,438,o),
(421,461,o),
(373,461,cs),
(316,461,o),
(197,425,o),
(197,424,cs),
(197,600,ls),
(197,633,o),
(250,628,o),
(300,628,cs),
(427,627,o),
(397,526,o),
(481,526,cs),
(517,526,o),
(544,552,o),
(544,604,cs),
(544,662,o),
(492,700,o),
(425,700,cs),
(76,700,ls),
(60,700,o),
(35,699,o),
(35,675,cs),
(35,645,o),
(74,647,o),
(74,617,cs)
);
}
);
width = 569;
}
);
note = E;
unicode = 69;
},
{
glyphname = F;
kernLeft = "0";
kernRight = "0";
lastChange = "2025-07-23 16:20:37 +0000";
layers = (
{
hints = (
{
horizontal = 1;
place = (0, 21);
target = up;
type = BottomGhost;
},
{
horizontal = 1;
place = (342, 159);
place = (342, 159);
type = Stem;
},
{
horizontal = 1;
place = (629, 71);
place = (629, 71);
type = Stem;
},
{
place = (74, 125);
place = (74, 125);
type = Stem;
}
);
layerId = m01;
shapes = (
{
closed = 1;
nodes = (
(74,101,ls),
(74,64,o),
(27,66,o),
(27,30,cs),
(27,2,o),
(56,0,o),
(76,0,cs),
(195,0,ls),
(215,0,o),
(244,2,o),
(244,30,cs),
(244,66,o),
(197,64,o),
(197,101,cs),
(197,278,ls),
(197,324,o),
(215,400,o),
(270,400,cs),
(302,400,o),
(324,381,o),
(362,381,cs),
(398,381,o),
(432,401,o),
(432,441,cs),
(432,481,o),
(410,508,o),
(362,508,cs),
(314,508,o),
(197,445,o),
(197,444,cs),
(197,599,ls),
(197,632,o),
(250,628,o),
(300,628,cs),
(427,627,o),
(397,526,o),
(481,526,cs),
(517,526,o),
(544,552,o),
(544,604,cs),
(544,662,o),
(492,700,o),
(425,700,cs),
(76,700,ls),
(60,700,o),
(35,699,o),
(35,675,cs),
(35,645,o),
(74,647,o),
(74,617,cs)
);
}
);
width = 566;
}
);
note = F;
unicode = 70;
},
{
glyphname = G;
kernLeft = "0";
kernRight = "0";
lastChange = "2020-07-24 12:08:21 +0000";
layers = (
{
hints = (
{
horizontal = 1;
place = (-174, 73);
place = (-174, 73);
type = Stem;
},
{
horizontal = 1;
place = (-8, 97);
place = (-8, 97);
type = Stem;
},
{
horizontal = 1;
place = (614, 98);
place = (614, 98);
type = Stem;
},
{
place = (30, 150);
place = (30, 150);
type = Stem;
},
{
place = (454, 142);
place = (454, 142);
type = Stem;
}
);
layerId = m01;
shapes = (
{
closed = 1;
nodes = (
(439,614,o),
(452,509,o),
(533,509,cs),
(574,509,o),
(590,536,o),
(590,579,cs),
(590,621,o),
(554,709,o),
(498,709,cs),
(460,709,o),
(449,690,o),
(428,690,cs),
(407,690,o),
(406,712,o),
(355,712,cs),
(180,712,o),
(30,564,o),
(30,350,cs),
(30,134,o),
(181,-8,o),
(356,-8,cs),
(417,-8,o),
(470,14,o),
(507,52,c),
(509,49,ls),
(524,21,o),
(543,-8,o),
(598,-8,cs),
(630,-8,o),
(650,21,o),
(650,50,cs),
(650,81,o),
(632,105,o),
(604,105,cs),
(579,105,o),
(584,127,o),
(584,148,cs),
(585,332,ls),
(585,351,o),
(635,347,o),
(635,382,cs),
(635,417,o),
(605,418,o),
(583,418,cs),
(383,418,ls),
(361,418,o),
(327,417,o),
(327,382,cs),
(327,347,o),
(358,345,o),
(389,345,cs),
(421,345,o),
(454,347,o),
(454,332,cs),
(454,269,o),
(456,197,o),
(456,196,cs),
(456,129,o),
(439,89,o),
(357,89,cs),
(246,89,o),
(169,224,o),
(169,350,cs),
(169,497,o),
(243,614,o),
(354,614,cs)
);
}
);
width = 663;
}
);
note = G;
unicode = 71;
},
{
glyphname = H;
kernLeft = "0";
kernRight = "0";
lastChange = "2020-07-24 12:08:21 +0000";
layers = (
{
hints = (
{
horizontal = 1;
place = (0, 21);
target = up;
type = BottomGhost;
},
{
horizontal = 1;
place = (284, 100);
place = (284, 100);
type = Stem;
},
{
horizontal = 1;
place = (700, -20);
target = down;
type = TopGhost;
},
{
place = (82, 123);
place = (82, 123);
type = Stem;
},
{
place = (484, 123);
place = (484, 123);
type = Stem;
}
);
layerId = m01;
shapes = (
{
closed = 1;
nodes = (
(195,240,l),
(197,275,ls),
(200,325,o),
(228,347,o),
(270,347,cs),
(385,347,ls),
(445,347,o),
(467,348,o),
(474,365,c),
(474,101,ls),
(474,64,o),
(427,66,o),
(427,30,cs),
(427,2,o),
(456,0,o),
(476,0,cs),
(595,0,ls),
(615,0,o),
(644,2,o),
(644,30,cs),
(644,66,o),
(597,64,o),
(597,101,cs),
(597,600,ls),
(597,637,o),
(644,635,o),
(644,671,cs),
(644,699,o),
(615,701,o),
(595,701,cs),
(476,701,ls),
(456,701,o),
(427,699,o),
(427,671,cs),
(427,635,o),
(474,637,o),
(474,600,cs),
(474,550,ls),
(474,470,o),
(448,442,o),
(388,442,cs),
(312,443,ls),
(244,443,o),
(206,444,o),
(195,428,c),
(195,600,ls),
(195,637,o),
(242,635,o),
(242,671,cs),
(242,699,o),
(213,701,o),
(193,701,cs),
(74,701,ls),
(54,701,o),
(25,699,o),
(25,671,cs),
(25,635,o),
(72,637,o),
(72,600,cs),
(72,101,ls),
(72,64,o),
(25,66,o),
(25,30,cs),
(25,2,o),
(54,0,o),
(74,0,cs),
(193,0,ls),
(213,0,o),
(242,2,o),
(242,30,cs),
(242,66,o),
(195,64,o),
(195,101,cs)
);
}
);
width = 679;
}
);
note = H;
unicode = 72;
},
{
glyphname = I;
kernLeft = "0";
kernRight = "0";
lastChange = "2020-07-24 12:08:21 +0000";
layers = (
{
hints = (
{
horizontal = 1;
place = (0, 21);
target = up;
type = BottomGhost;
},
{
horizontal = 1;
place = (700, -20);
target = down;
type = TopGhost;
},
{
place = (82, 123);
place = (82, 123);
type = Stem;
}
);
layerId = m01;
shapes = (
{
closed = 1;
nodes = (
(205,600,ls),
(205,637,o),
(252,635,o),
(252,671,cs),
(252,699,o),
(223,701,o),
(203,701,cs),
(84,701,ls),
(64,701,o),
(35,699,o),
(35,671,cs),
(35,635,o),
(82,637,o),
(82,600,cs),
(82,101,ls),
(82,64,o),
(35,66,o),
(35,30,cs),
(35,2,o),
(64,0,o),
(84,0,cs),
(203,0,ls),
(223,0,o),
(252,2,o),
(252,30,cs),
(252,66,o),
(205,64,o),
(205,101,cs)
);
}
);
width = 287;
}
);
note = I;
unicode = 73;
},
{
glyphname = J;
kernLeft = "0";
kernRight = "0";
lastChange = "2020-07-24 12:08:21 +0000";
layers = (
{
hints = (
{
horizontal = 1;
place = (-4, 97);
place = (-4, 97);
type = Stem;
},
{
horizontal = 1;
place = (700, -20);
target = down;
type = TopGhost;
},
{
place = (210, 123);
place = (210, 123);
type = Stem;
}
);
layerId = m01;
shapes = (
{
closed = 1;
nodes = (
(174,80,o),
(143,88,o),
(143,114,cs),
(143,153,o),
(116,174,o),
(81,174,cs),
(37,174,o),
(20,141,o),
(20,109,cs),
(20,51,o),
(82,-20,o),
(195,-20,cs),
(340,-20,o),
(433,62,o),
(433,224,cs),
(433,617,ls),
(433,647,o),
(470,645,o),
(470,675,cs),
(470,699,o),
(445,700,o),
(429,700,cs),
(312,700,ls),
(296,700,o),
(271,699,o),
(271,675,cs),
(271,645,o),
(310,647,o),
(310,617,cs),
(310,235,ls),
(310,113,o),
(262,80,o),
(209,80,cs)
);
}
);
width = 505;
}
);
note = J;
unicode = 74;
},
{
glyphname = K;
kernLeft = "0";
kernRight = "0";
lastChange = "2020-07-24 12:08:21 +0000";
layers = (
{
hints = (
{
horizontal = 1;
place = (0, 21);
target = up;
type = BottomGhost;
},
{
horizontal = 1;
place = (709, -20);
target = down;
type = TopGhost;
},
{
place = (74, 123);
place = (74, 123);
type = Stem;
},
{
place = (416, 193);
place = (416, 193);
type = Stem;
},
{
horizontal = 1;
place = (529, 180);
place = (529, 180);
type = Stem;
},
{
horizontal = 1;
place = (700, -20);
target = down;
type = TopGhost;
}
);
layerId = m01;
shapes = (
{
closed = 1;
nodes = (
(413,83,l),
(430,58,o),
(374,55,o),
(374,25,cs),
(374,1,o),
(399,0,o),
(415,0,cs),
(568,-1,ls),
(584,-1,o),
(609,0,o),
(609,24,cs),
(609,54,o),
(578,52,o),
(563,79,cs),
(555,93,l),
(370,469,l),
(448,544,ls),
(460,555,o),
(470,559,o),
(479,559,cs),
(504,559,o),
(522,529,o),
(554,529,cs),
(591,529,o),
(629,561,o),
(629,616,cs),
(629,661,o),
(598,709,o),
(539,709,cs),
(473,709,o),
(404,648,o),
(362,606,cs),
(197,438,l),
(197,617,ls),
(197,647,o),
(236,645,o),
(236,675,cs),
(236,699,o),
(211,700,o),
(195,700,cs),
(76,700,ls),
(60,700,o),
(35,699,o),
(35,675,cs),
(35,645,o),
(74,647,o),
(74,617,cs),
(74,83,ls),
(74,53,o),
(35,55,o),
(35,25,cs),
(35,1,o),
(60,0,o),
(76,0,cs),
(195,0,ls),
(211,0,o),
(236,1,o),
(236,25,cs),
(236,55,o),
(197,53,o),
(197,83,cs),
(197,277,ls),
(197,292,o),
(251,376,o),
(278,376,cs),
(283,376,o),
(287,373,o),
(290,367,cs)
);
}
);
width = 658;
}
);
note = K;
unicode = 75;
},
{
glyphname = L;
kernLeft = "0";
kernRight = "0";
lastChange = "2020-07-24 12:08:21 +0000";
layers = (
{
hints = (
{
horizontal = 1;
place = (1, 75);
place = (1, 75);
type = Stem;
},
{
horizontal = 1;
place = (700, -20);
target = down;
type = TopGhost;
},
{
place = (74, 123);
place = (74, 123);
type = Stem;
}
);
layerId = m01;
shapes = (
{
closed = 1;
nodes = (
(144,1,o),
(134,4,o),
(202,4,cs),
(266,4,o),
(317,1,o),
(360,1,cs),
(398,1,o),
(429,3,o),
(454,14,cs),
(510,37,o),
(568,116,o),
(539,180,cs),
(531,198,o),
(513,204,o),
(496,204,cs),
(480,204,o),
(464,199,o),
(455,193,cs),
(415,167,o),
(410,146,o),
(379,110,cs),
(352,78,o),
(319,77,o),
(277,76,cs),
(245,75,o),
(197,90,o),
(197,110,cs),
(197,617,ls),
(197,647,o),
(236,645,o),
(236,675,cs),
(236,699,o),
(211,700,o),
(195,700,cs),
(78,700,ls),
(62,700,o),
(37,699,o),
(37,675,cs),
(37,645,o),
(74,647,o),
(74,617,cs),
(74,83,ls),
(74,53,o),
(35,55,o),
(35,25,cs),
(35,1,o),
(60,0,o),
(76,0,cs)
);
}
);
width = 570;
}
);
note = L;
unicode = 76;
},
{
glyphname = M;
kernLeft = "0";
kernRight = "0";
lastChange = "2020-07-24 12:08:21 +0000";
layers = (
{
hints = (
{
horizontal = 1;
place = (0, 21);
target = up;
type = BottomGhost;
},
{
horizontal = 1;
place = (700, -20);
target = down;
type = TopGhost;
},
{
place = (81, 113);
place = (81, 113);
type = Stem;
},
{
place = (665, 123);
place = (665, 123);
type = Stem;
}
);
layerId = m01;
shapes = (
{
closed = 1;
nodes = (
(376,206,ls),
(390,185,o),
(401,168,o),
(431,168,cs),
(461,168,o),
(469,184,o),
(483,205,cs),
(636,437,ls),
(639,442,o),
(650,462,o),
(657,462,cs),
(662,462,o),
(665,455,o),
(665,434,cs),
(665,83,ls),
(665,53,o),
(619,55,o),
(619,25,cs),
(619,1,o),
(649,0,o),
(668,0,cs),
(786,0,ls),
(804,0,o),
(834,1,o),
(834,25,cs),
(834,55,o),
(788,53,o),
(788,83,cs),
(788,617,ls),
(788,647,o),
(834,645,o),
(834,675,cs),
(834,699,o),
(804,700,o),
(786,700,cs),
(687,700,ls),
(668,700,o),
(666,688,o),
(661,679,cs),
(640,643,o),
(460,337,o),
(443,337,cs),
(426,337,o),
(249,643,o),
(227,679,cs),
(222,688,o),
(208,700,o),
(189,700,cs),
(146,700,o),
(125,700,o),
(83,700,cs),
(65,700,o),
(35,699,o),
(35,675,cs),
(35,645,o),
(81,647,o),
(81,617,cs),
(81,83,ls),
(81,53,o),
(35,55,o),
(35,25,cs),
(35,1,o),
(65,0,o),
(83,0,cs),
(191,0,ls),
(210,0,o),
(240,1,o),
(240,25,cs),
(240,55,o),
(194,53,o),
(194,83,cs),
(194,436,ls),
(194,456,o),
(197,463,o),
(202,463,cs),
(210,463,o),
(222,442,o),
(223,439,c)
);
}
);
width = 869;
}
);
note = M;
unicode = 77;
},
{
glyphname = N;
kernLeft = "0";
kernRight = "0";
lastChange = "2020-07-24 12:08:21 +0000";
layers = (
{
hints = (
{
horizontal = 1;
place = (0, 21);
target = up;
type = BottomGhost;
},
{
horizontal = 1;
place = (700, -20);
target = down;
type = TopGhost;
},
{
place = (81, 113);
place = (81, 113);
type = Stem;
},
{
place = (474, 123);
place = (474, 123);
type = Stem;
}
);
layerId = m01;
shapes = (
{
closed = 1;
nodes = (
(220,679,ls),
(215,688,o),
(200,700,o),
(181,700,cs),
(76,700,ls),
(58,700,o),
(28,699,o),
(28,675,cs),
(28,645,o),
(74,647,o),
(74,617,cs),
(74,83,ls),
(74,53,o),
(28,55,o),
(28,25,cs),
(28,1,o),
(58,0,o),
(76,0,cs),
(184,0,ls),
(203,0,o),
(233,1,o),
(233,25,cs),
(233,55,o),
(187,53,o),
(187,83,cs),
(187,408,ls),
(187,449,o),
(190,464,o),
(196,464,cs),
(200,464,o),
(206,455,o),
(213,443,cs),
(443,66,ls),
(458,42,o),
(486,0,o),
(536,0,cs),
(554,0,ls),
(597,0,o),
(607,35,o),
(607,68,cs),
(607,617,ls),
(607,647,o),
(653,645,o),
(653,675,cs),
(653,699,o),
(623,700,o),
(605,700,cs),
(486,700,ls),
(467,700,o),
(438,699,o),
(438,675,cs),
(438,645,o),
(484,647,o),
(484,617,cs),
(484,324,ls),
(484,298,o),
(479,287,o),
(472,287,cs),
(463,287,o),
(450,302,o),
(437,324,cs)
);
}
);
width = 681;
}
);
note = N;
unicode = 78;
},
{
glyphname = O;
kernLeft = "0";
kernRight = "0";
lastChange = "2020-07-24 12:08:21 +0000";
layers = (
{
hints = (
{
horizontal = 1;
place = (756, 80);
place = (756, 80);
type = Stem;
}
);
layerId = m01;
shapes = (
{
closed = 1;
nodes = (
(455,622,o),
(534,487,o),
(534,344,cs),
(534,201,o),
(455,72,o),
(352,72,cs),
(229,72,o),
(165,208,o),
(165,344,cs),
(165,482,o),
(229,622,o),
(352,622,cs)
);
},
{
closed = 1;
nodes = (
(844,0,o),
(842,0,o),
(843,0,cs)
);
},
{
closed = 1;
nodes = (
(26,129,o),
(177,-8,o),
(351,-8,cs),
(525,-8,o),
(673,130,o),
(673,346,cs),
(673,562,o),
(525,702,o),
(351,702,cs),
(177,702,o),
(26,561,o),
(26,345,cs)
);
}
);
width = 700;
}
);
note = O;
unicode = 79;
userData = {
KernOnName = O;
};
},
{
glyphname = Oacute;
kernLeft = "0";
kernRight = "0";
lastChange = "2020-07-24 12:08:21 +0000";
layers = (
{
hints = (
{
horizontal = 1;
place = (756, 80);
place = (756, 80);
type = Stem;
}
);
layerId = m01;
shapes = (
{
closed = 1;
nodes = (
(455,622,o),
(534,487,o),
(534,344,cs),
(534,201,o),
(455,72,o),
(352,72,cs),
(229,72,o),
(165,208,o),
(165,344,cs),
(165,482,o),
(229,622,o),
(352,622,cs)
);
},
{
closed = 1;
nodes = (
(844,0,o),
(842,0,o),
(843,0,cs)
);
},
{
closed = 1;
nodes = (
(26,129,o),
(177,-8,o),
(351,-8,cs),
(525,-8,o),
(673,130,o),
(673,346,cs),
(673,562,o),
(525,702,o),
(351,702,cs),
(177,702,o),
(26,561,o),
(26,345,cs)
);
}
);
width = 759;
}
);
note = Oacute;
unicode = 211;
},
{
glyphname = Odieresis;
kernLeft = "0";
kernRight = "0";
lastChange = "2020-07-24 12:08:21 +0000";
layers = (
{
hints = (
{
horizontal = 1;
place = (756, 80);
place = (756, 80);
type = Stem;
}
);
layerId = m01;
shapes = (
{
closed = 1;
nodes = (
(455,622,o),
(534,487,o),
(534,344,cs),
(534,201,o),
(455,72,o),
(352,72,cs),
(229,72,o),
(165,208,o),
(165,344,cs),
(165,482,o),
(229,622,o),
(352,622,cs)
);
},
{
closed = 1;
nodes = (
(844,0,o),
(842,0,o),
(843,0,cs)
);
},
{
closed = 1;
nodes = (
(26,129,o),
(177,-8,o),
(351,-8,cs),
(525,-8,o),
(673,130,o),
(673,346,cs),
(673,562,o),
(525,702,o),
(351,702,cs),
(177,702,o),
(26,561,o),
(26,345,cs)
);
},
{
closed = 1;
nodes = (
(186,796,o),
(221,767,o),
(255,767,cs),
(289,767,o),
(324,796,o),
(324,836,cs),
(324,875,o),
(289,905,o),
(255,905,cs),
(221,905,o),
(186,875,o),
(186,836,cs)
);
},
{
closed = 1;
nodes = (
(394,796,o),
(429,767,o),
(463,767,cs),
(497,767,o),
(532,796,o),
(532,836,cs),
(532,875,o),
(497,905,o),
(463,905,cs),
(429,905,o),
(394,875,o),
(394,836,cs)
);
}
);
width = 700;
}
);
note = Odieresis;
unicode = 214;
},
{
glyphname = P;
kernLeft = "0";
kernRight = "0";
lastChange = "2020-07-24 12:08:21 +0000";
layers = (
{
hints = (
{
horizontal = 1;
place = (0, 21);
target = up;
type = BottomGhost;
},
{
horizontal = 1;
place = (615, 85);
place = (615, 85);
type = Stem;
},
{
place = (74, 123);
place = (74, 123);
type = Stem;
},
{
place = (395, 131);
place = (395, 131);
type = Stem;
}
);
layerId = m01;
shapes = (
{
closed = 1;
nodes = (
(364,354,ls),
(461,394,o),
(532,431,o),
(532,537,cs),
(532,652,o),
(469,700,o),
(353,700,cs),
(70,700,ls),
(54,700,o),
(29,699,o),
(29,675,cs),
(29,645,o),
(70,647,o),
(70,617,cs),
(70,83,ls),
(70,53,o),
(31,55,o),
(31,25,cs),
(31,1,o),
(56,0,o),
(72,0,cs),
(191,0,ls),
(207,0,o),
(232,1,o),
(232,25,cs),
(232,55,o),
(193,53,o),
(193,83,cs),
(193,242,ls),
(193,260,o),
(190,282,o),
(217,293,cs)
);
},
{
closed = 1;
nodes = (
(193,385,l),
(193,580,ls),
(193,602,o),
(208,615,o),
(230,615,cs),
(312,615,ls),
(377,615,o),
(411,602,o),
(411,540,cs),
(411,470,o),
(367,457,o),
(313,435,cs)
);
}
);
width = 547;
}
);
note = P;
unicode = 80;
userData = {
KernOnName = P;
};
},
{
glyphname = Q;
kernLeft = "0";
kernRight = "0";
lastChange = "2020-07-24 12:08:21 +0000";
layers = (
{
hints = (
{
horizontal = 1;
place = (-164, 77);
place = (-164, 77);
type = Stem;
},
{
horizontal = 1;
place = (-8, 80);
place = (-8, 80);
type = Stem;
},
{
horizontal = 1;
place = (170, 151);
place = (170, 151);
type = Stem;
},
{
horizontal = 1;
place = (622, 80);
place = (622, 80);
type = Stem;
},
{
place = (-9, 149);
place = (-9, 149);
type = Stem;
},
{
place = (164, 60);
place = (164, 60);
type = Stem;
},
{
place = (489, 149);
place = (489, 149);
type = Stem;
}
);
layerId = m01;
shapes = (
{
closed = 1;
nodes = (
(455,622,o),
(534,487,o),
(534,344,cs),
(534,201,o),
(455,72,o),
(352,72,cs),
(229,72,o),
(165,208,o),
(165,344,cs),
(165,482,o),
(229,622,o),
(352,622,cs)
);
},
{
closed = 1;
nodes = (
(171,-137,o),
(271,-72,o),
(316,-72,cs),
(360,-72,o),
(448,-134,o),
(526,-137,cs),
(583,-138,o),
(676,-68,o),
(618,-11,cs),
(608,-1,o),
(592,7,o),
(574,7,cs),
(559,7,o),
(542,1,o),
(528,-13,cs),
(514,-28,o),
(516,-35,o),
(503,-48,cs),
(496,-55,o),
(488,-59,o),
(480,-59,cs),
(455,-59,o),
(426,-28,o),
(392,-5,c),
(547,14,o),
(673,147,o),
(673,346,cs),
(673,562,o),
(525,702,o),
(351,702,cs),
(177,702,o),
(26,561,o),
(26,345,cs),
(26,170,o),
(125,47,o),
(255,7,c),
(171,-20,o),
(145,-87,o),
(110,-85,cs),
(46,-83,o),
(80,-137,o),
(124,-137,cs)
);
},
{
closed = 1;
nodes = (
(842,0,o),
(844,0,o),
(843,0,cs)
);
}
);
width = 699;
}
);
note = Q;
unicode = 81;
},
{
glyphname = R;
kernLeft = "0";
kernRight = "0";
lastChange = "2020-07-24 12:08:21 +0000";
layers = (
{
hints = (
{
horizontal = 1;
place = (0, 21);
target = up;
type = BottomGhost;
},
{
horizontal = 1;
place = (615, 85);
place = (615, 85);
type = Stem;
},
{
place = (76, 123);
place = (76, 123);
type = Stem;
},
{
place = (347, 217);
place = (347, 217);
type = Stem;
}
);
layerId = m01;
shapes = (
{
closed = 1;
nodes = (
(231,299,o),
(244,304,o),
(257,309,cs),
(294,320,o),
(330,293,o),
(348,251,cs),
(420,82,ls),
(430,56,o),
(399,55,o),
(399,25,cs),
(399,1,o),
(424,0,o),
(440,0,cs),
(563,0,ls),
(579,0,o),
(604,0,o),
(604,24,cs),
(604,54,o),
(565,57,o),
(554,82,cs),
(459,295,ls),
(445,326,o),
(429,348,o),
(409,360,c),
(499,394,o),
(561,437,o),
(561,537,cs),
(561,652,o),
(498,700,o),
(382,700,cs),
(72,700,ls),
(56,700,o),
(31,699,o),
(31,675,cs),
(31,645,o),
(72,647,o),
(72,617,cs),
(72,83,ls),
(72,53,o),
(33,55,o),
(33,25,cs),
(33,1,o),
(58,0,o),
(74,0,cs),
(193,0,ls),
(209,0,o),
(234,1,o),
(234,25,cs),
(234,55,o),
(195,53,o),
(195,83,cs),
(195,248,ls),
(195,266,o),
(202,285,o),
(219,293,cs)
);
},
{
closed = 1;
nodes = (
(195,385,l),
(195,580,ls),
(195,602,o),
(210,615,o),
(232,615,cs),
(341,615,ls),
(406,615,o),
(440,602,o),
(440,540,cs),
(440,482,o),
(397,454,o),
(342,435,cs)
);
}
);
width = 604;
}
);
note = R;
unicode = 82;
},
{
glyphname = S;
kernLeft = "0";
kernRight = "0";
lastChange = "2020-07-24 12:08:21 +0000";
layers = (
{
hints = (
{
horizontal = 1;
place = (-8, 87);
place = (-8, 87);
type = Stem;
},
{
horizontal = 1;
place = (622, 90);
place = (622, 90);
type = Stem;
},
{
place = (36, 133);
place = (36, 133);
type = Stem;
},
{
place = (397, 149);
place = (397, 149);
type = Stem;
}
);
layerId = m01;
shapes = (
{
closed = 1;
nodes = (
(456,-8,o),
(561,62,o),
(561,186,cs),
(561,269,o),
(521,318,o),
(442,358,cs),
(281,441,ls),
(224,471,o),
(161,497,o),
(161,546,cs),
(161,595,o),
(187,632,o),
(260,632,cs),
(350,632,o),
(407,503,o),
(478,503,cs),
(507,503,o),
(543,525,o),
(543,574,cs),
(543,630,o),
(496,712,o),
(439,712,cs),
(407,712,o),
(388,685,o),
(377,685,cs),
(355,685,o),
(327,712,o),
(246,712,cs),
(121,712,o),
(38,636,o),
(38,523,cs),
(38,486,o),
(51,420,o),
(161,360,cs),
(338,263,ls),
(379,241,o),
(427,212,o),
(427,163,cs),
(427,114,o),
(397,72,o),
(308,72,cs),
(200,72,o),
(199,203,o),
(113,203,cs),
(55,203,o),
(36,174,o),
(36,128,cs),
(36,83,o),
(79,-10,o),
(145,-10,cs),
(189,-10,o),
(191,16,o),
(216,16,cs),
(237,16,o),
(250,-8,o),
(323,-8,cs)
);
}
);
width = 586;
}
);
note = S;
unicode = 83;
},
{
glyphname = T;
kernLeft = "0";
kernRight = "0";
lastChange = "2020-07-24 12:08:21 +0000";
layers = (
{
hints = (
{
horizontal = 1;
place = (0, 21);
target = up;
type = BottomGhost;
},
{
horizontal = 1;
place = (614, 88);
place = (614, 88);
type = Stem;
},
{
place = (273, 123);
place = (273, 123);
type = Stem;
},
{
horizontal = 1;
place = (712, -20);
target = down;
type = TopGhost;
}
);
layerId = m01;
shapes = (
{
closed = 1;
nodes = (
(263,614,o),
(273,615,o),
(273,585,cs),
(273,83,ls),
(273,53,o),
(234,55,o),
(234,25,cs),
(234,1,o),
(259,0,o),
(275,0,cs),
(394,0,ls),
(410,0,o),
(435,1,o),
(435,25,cs),
(435,55,o),
(396,53,o),
(396,83,cs),
(396,585,ls),
(396,615,o),
(406,614,o),
(447,614,cs),
(562,613,o),
(523,527,o),
(594,527,cs),
(617,527,o),
(639,545,o),
(639,584,cs),
(639,638,o),
(607,712,o),
(561,712,cs),
(537,712,o),
(519,694,o),
(511,695,cs),
(452,700,o),
(392,702,o),
(333,702,cs),
(275,702,o),
(216,700,o),
(158,695,cs),
(150,694,o),
(132,712,o),
(108,712,cs),
(62,712,o),
(30,638,o),
(30,584,cs),
(30,545,o),
(52,527,o),
(75,527,cs),
(146,527,o),
(107,613,o),
(222,614,cs)
);
}
);
width = 669;
}
);
note = T;
unicode = 84;
userData = {
KernOnName = T;
};
},
{
glyphname = U;
kernLeft = "0";
kernRight = "0";
lastChange = "2020-07-24 12:08:21 +0000";
layers = (
{
hints = (
{
horizontal = 1;
place = (-15, 95);
place = (-15, 95);
type = Stem;
},
{
horizontal = 1;
place = (700, -20);
target = down;
type = TopGhost;
},
{
place = (74, 123);
place = (74, 123);
type = Stem;
},
{
place = (437, 123);
place = (437, 123);
type = Stem;
}
);
layerId = m01;
shapes = (
{
closed = 1;
nodes = (
(235,80,o),
(182,135,o),
(182,207,cs),
(182,617,ls),
(182,647,o),
(221,645,o),
(221,675,cs),
(221,699,o),
(196,700,o),
(180,700,cs),
(61,700,ls),
(45,700,o),
(20,699,o),
(20,675,cs),
(20,645,o),
(59,647,o),
(59,617,cs),
(59,198,ls),
(59,81,o),
(172,-20,o),
(302,-20,cs),
(432,-20,o),
(545,81,o),
(545,198,cs),
(545,617,ls),
(545,647,o),
(584,645,o),
(584,675,cs),
(584,699,o),
(559,700,o),
(543,700,cs),
(424,700,ls),
(408,700,o),
(383,699,o),
(383,675,cs),
(383,645,o),
(422,647,o),
(422,617,cs),
(422,207,ls),
(422,135,o),
(375,80,o),
(305,80,cs)
);
}
);
width = 604;
}
);
note = U;
unicode = 85;
},
{
glyphname = Udieresis;
kernLeft = "0";
kernRight = "0";
lastChange = "2020-07-24 12:08:21 +0000";
layers = (
{
hints = (
{
horizontal = 1;
place = (-15, 95);
place = (-15, 95);
type = Stem;
},
{
horizontal = 1;
place = (700, -20);
target = down;
type = TopGhost;
},
{
place = (74, 123);
place = (74, 123);
type = Stem;
},
{
place = (437, 123);
place = (437, 123);
type = Stem;
}
);
layerId = m01;
shapes = (
{
closed = 1;
nodes = (
(250,80,o),
(197,135,o),
(197,207,cs),
(197,617,ls),
(197,647,o),
(236,645,o),
(236,675,cs),
(236,699,o),
(211,700,o),
(195,700,cs),
(76,700,ls),
(60,700,o),
(35,699,o),
(35,675,cs),
(35,645,o),
(74,647,o),
(74,617,cs),
(74,198,ls),
(74,81,o),
(187,-20,o),
(317,-20,cs),
(447,-20,o),
(560,81,o),
(560,198,cs),
(560,617,ls),
(560,647,o),
(599,645,o),
(599,675,cs),
(599,699,o),
(574,700,o),
(558,700,cs),
(439,700,ls),
(423,700,o),
(398,699,o),
(398,675,cs),
(398,645,o),
(437,647,o),
(437,617,cs),
(437,207,ls),
(437,135,o),
(390,80,o),
(320,80,cs)
);
},
{
closed = 1;
nodes = (
(81,788,o),
(116,759,o),
(150,759,cs),
(184,759,o),
(219,788,o),
(219,828,cs),
(219,867,o),
(184,897,o),
(150,897,cs),
(116,897,o),
(81,867,o),
(81,828,cs)
);
},
{
closed = 1;
nodes = (
(409,788,o),
(444,759,o),
(478,759,cs),
(512,759,o),
(547,788,o),
(547,828,cs),
(547,867,o),
(512,897,o),
(478,897,cs),
(444,897,o),
(409,867,o),
(409,828,cs)
);
}
);
width = 634;
}
);
note = Udieresis;
unicode = 220;
},
{
glyphname = V;
kernLeft = "0";
kernRight = "0";
lastChange = "2020-07-24 12:08:21 +0000";
layers = (
{
hints = (
{
horizontal = 1;
place = (1, 21);
target = up;
type = BottomGhost;
},
{
horizontal = 1;
place = (700, -20);
target = down;
type = TopGhost;
},
{
place = (222, 203);
place = (222, 203);
type = Stem;
},
{
place = (426, 195);
place = (426, 195);
type = Stem;
},
{
place = (30, 206);
place = (30, 206);
type = Stem;
},
{
place = (30, 591);
place = (30, 591);
type = Stem;
}
);
layerId = m01;
shapes = (
{
closed = 1;
nodes = (
(579,650,o),
(621,646,o),
(621,677,cs),
(621,700,o),
(602,700,o),
(586,700,cs),
(478,700,ls),
(461,700,o),
(426,700,o),
(426,676,cs),
(426,646,o),
(458,649,o),
(449,621,cs),
(439,592,o),
(367,318,o),
(345,247,cs),
(341,234,o),
(339,225,o),
(335,225,cs),
(330,225,o),
(327,235,o),
(324,245,cs),
(303,314,o),
(248,504,o),
(213,621,cs),
(204,650,o),
(236,646,o),
(236,676,cs),
(236,700,o),
(201,700,o),
(184,700,cs),
(65,700,ls),
(49,700,o),
(30,700,o),
(30,677,cs),
(30,646,o),
(72,650,o),
(82,621,cs),
(137,438,o),
(185,274,o),
(241,91,cs),
(245,79,ls),
(254,51,o),
(222,54,o),
(222,25,cs),
(222,1,o),
(250,0,o),
(267,0,cs),
(389,0,ls),
(406,0,o),
(425,1,o),
(425,25,cs),
(425,54,o),
(393,51,o),
(402,79,cs),
(406,91,ls),
(463,273,o),
(512,440,o),
(569,621,cs)
);
}
);
width = 651;
}
);
note = V;
unicode = 86;
},
{
glyphname = W;
kernLeft = "0";
kernRight = "0";
lastChange = "2020-07-24 12:08:21 +0000";
layers = (
{
hints = (
{
horizontal = 1;
place = (0, 225);
place = (0, 225);
type = Stem;
},
{
horizontal = 1;
place = (700, -20);
target = down;
type = TopGhost;
},
{
place = (30, 981);
place = (30, 981);
type = Stem;
},
{
place = (30, 206);
place = (30, 206);
type = Stem;
},
{
place = (222, 203);
place = (222, 203);
type = Stem;
},
{
place = (612, 203);
place = (612, 203);
type = Stem;
}
);
layerId = m01;
shapes = (
{
closed = 1;
nodes = (
(601,637,o),
(579,675,o),
(543,675,cs),
(510,675,ls),
(474,675,o),
(454,641,o),
(448,621,cs),
(440,592,o),
(367,317,o),
(345,246,cs),
(341,233,o),
(340,225,o),
(334,225,cs),
(329,225,o),
(327,234,o),
(324,244,cs),
(303,313,o),
(247,504,o),
(213,621,c),
(203,649,o),
(236,646,o),
(236,676,cs),
(236,700,o),
(201,700,o),
(184,700,cs),
(65,700,ls),
(49,700,o),
(30,700,o),
(30,677,cs),
(30,646,o),
(72,650,o),
(82,621,cs),
(138,435,o),
(187,251,o),
(241,90,cs),
(245,78,ls),
(254,50,o),
(222,53,o),
(222,24,cs),
(222,0,o),
(250,0,o),
(267,0,cs),
(389,0,ls),
(406,0,o),
(425,1,o),
(425,25,cs),
(425,54,o),
(393,51,o),
(402,79,cs),
(502,411,ls),
(507,425,o),
(516,465,o),
(522,465,cs),
(528,465,o),
(536,425,o),
(541,410,cs),
(635,78,ls),
(644,50,o),
(612,53,o),
(612,24,cs),
(612,0,o),
(640,0,o),
(657,0,cs),
(779,0,ls),
(796,0,o),
(815,1,o),
(815,25,cs),
(815,54,o),
(783,51,o),
(792,79,cs),
(796,91,ls),
(853,273,o),
(902,440,o),
(959,621,cs),
(969,650,o),
(1011,646,o),
(1011,677,cs),
(1011,700,o),
(992,700,o),
(976,700,cs),
(868,700,ls),
(851,700,o),
(816,700,o),
(816,676,cs),
(816,646,o),
(849,649,o),
(839,621,cs),
(830,592,o),
(759,317,o),
(737,246,cs),
(733,233,o),
(732,225,o),
(727,225,cs),
(721,225,o),
(719,235,o),
(716,245,cs),
(695,314,o),
(643,501,o),
(607,617,cs)
);
}
);
width = 1031;
}
);
note = W;
unicode = 87;
},
{
glyphname = X;
kernLeft = "0";
kernRight = "0";
lastChange = "2020-07-24 12:08:21 +0000";
layers = (
{
hints = (
{
horizontal = 1;
place = (0, 21);
target = up;
type = BottomGhost;
},
{
horizontal = 1;
place = (700, -20);
target = down;
type = TopGhost;
},
{
place = (39, 177);
place = (39, 177);
type = Stem;
},
{
place = (429, 197);
place = (429, 197);
type = Stem;
}
);
layerId = m01;
shapes = (
{
closed = 1;
nodes = (
(386,352,l),
(540,617,ls),
(557,647,o),
(612,640,o),
(612,675,cs),
(612,703,o),
(596,700,o),
(580,700,cs),
(485,700,ls),
(469,700,o),
(424,703,o),
(424,675,cs),
(424,640,o),
(445,646,o),
(428,616,cs),
(331,448,l),
(233,617,ls),
(216,646,o),
(238,640,o),
(238,675,cs),
(238,703,o),
(199,700,o),
(183,700,cs),
(59,700,ls),
(43,700,o),
(22,703,o),
(22,675,cs),
(22,640,o),
(76,648,o),
(94,617,cs),
(242,361,l),
(240,361,l),
(79,83,ls),
(62,53,o),
(5,59,o),
(5,25,cs),
(5,-3,o),
(29,0,o),
(45,0,cs),
(138,0,ls),
(154,0,o),
(193,-3,o),
(193,25,cs),
(193,59,o),
(170,52,o),
(187,82,cs),
(295,269,l),
(403,83,ls),
(420,54,o),
(398,60,o),
(398,25,cs),
(398,-3,o),
(437,0,o),
(453,0,cs),
(576,0,ls),
(592,0,o),
(613,-3,o),
(613,25,cs),
(613,60,o),
(560,53,o),
(542,84,cs)
);
}
);
width = 613;
}
);
note = X;
unicode = 88;
userData = {
KernOnName = X;
};
},
{
glyphname = Y;
kernLeft = "0";
kernRight = "0";
lastChange = "2020-07-24 12:08:21 +0000";
layers = (
{
hints = (
{
horizontal = 1;
place = (0, 21);
target = up;
type = BottomGhost;
},
{
horizontal = 1;
place = (700, -20);
target = down;
type = TopGhost;
},
{
place = (10, 198);
place = (10, 198);
type = Stem;
},
{
place = (242, 123);
place = (242, 123);
type = Stem;
},
{
place = (408, 176);
place = (408, 176);
type = Stem;
}
);
layerId = m01;
shapes = (
{
closed = 1;
nodes = (
(365,275,ls),
(365,400,o),
(454,512,o),
(511,617,cs),
(529,647,o),
(584,640,o),
(584,675,cs),
(584,703,o),
(568,700,o),
(552,700,cs),
(457,700,ls),
(441,700,o),
(396,703,o),
(396,675,cs),
(396,640,o),
(419,647,o),
(401,617,cs),
(390,599,o),
(320,456,o),
(308,456,cs),
(297,456,o),
(226,599,o),
(215,617,cs),
(197,647,o),
(220,640,o),
(220,675,cs),
(220,703,o),
(181,700,o),
(165,700,cs),
(47,700,ls),
(31,700,o),
(10,703,o),
(10,675,cs),
(10,640,o),
(63,645,o),
(83,617,cs),
(91,606,l),
(150,505,o),
(242,403,o),
(242,278,cs),
(242,83,ls),
(242,53,o),
(203,55,o),
(203,25,cs),
(203,1,o),
(228,0,o),
(244,0,cs),
(363,0,ls),
(379,0,o),
(404,1,o),
(404,25,cs),
(404,55,o),
(365,53,o),
(365,83,cs)
);
}
);
width = 594;
}
);
note = Y;
unicode = 89;
},
{
glyphname = Z;
kernLeft = "0";
kernRight = "0";
lastChange = "2020-07-24 12:08:21 +0000";
layers = (
{
hints = (
{
horizontal = 1;
place = (0, 81);
place = (0, 81);
type = Stem;
},
{
horizontal = 1;
place = (611, 81);
place = (611, 81);
type = Stem;
},
{
place = (29, 196);
place = (29, 196);
type = Stem;
},
{
place = (426, 196);
place = (426, 196);
type = Stem;
}
);
layerId = m01;
shapes = (
{
closed = 1;
nodes = (
(603,619,ls),
(634,660,o),
(629,700,o),
(579,700,cs),
(119,700,ls),
(70,700,o),
(35,650,o),
(35,589,cs),
(35,545,o),
(57,525,o),
(82,525,cs),
(144,525,o),
(161,621,o),
(249,621,cs),
(327,621,o),
(456,630,o),
(419,581,cs),
(48,83,ls),
(17,42,o),
(22,0,o),
(72,0,cs),
(532,0,ls),
(581,0,o),
(616,52,o),
(616,113,cs),
(616,157,o),
(594,177,o),
(569,177,cs),
(507,177,o),
(490,81,o),
(402,81,cs),
(324,81,o),
(195,72,o),
(232,121,cs)
);
}
);
width = 647;
}
);
note = Z;
unicode = 90;
},
{
glyphname = a;
kernLeft = "0";
kernRight = "0";
lastChange = "2020-07-24 12:08:21 +0000";
layers = (
{
hints = (
{
horizontal = 1;
place = (0, 21);
target = up;
type = BottomGhost;
},
{
horizontal = 1;
place = (30, 45);
place = (30, 45);
type = Stem;
},
{
horizontal = 1;
place = (280, 67);
place = (280, 67);
type = Stem;
},
{
horizontal = 1;
place = (430, 78);
place = (430, 78);
type = Stem;
},
{
place = (53, 121);
place = (53, 121);
type = Stem;
},
{
place = (354, 114);
place = (354, 114);
type = Stem;
}
);
layerId = m01;
shapes = (
{
closed = 1;
nodes = (
(111,508,ls),
(64,508,o),
(40,467,o),
(40,434,cs),
(40,393,o),
(51,381,o),
(86,381,cs),
(148,381,o),
(143,448,o),
(216,448,cs),
(275,448,o),
(305,429,o),
(305,367,cs),
(305,358,ls),
(305,343,o),
(293,337,o),
(286,337,cs),
(266,337,o),
(261,348,o),
(202,348,cs),
(99,348,o),
(12,279,o),
(12,173,cs),
(12,53,o),
(106,-2,o),
(184,-2,cs),
(271,-2,o),
(266,24,o),
(306,24,cs),
(329,24,o),
(327,0,o),
(357,0,cs),
(419,0,ls),
(437,0,o),
(460,1,o),
(460,25,cs),
(460,55,o),
(417,53,o),
(417,83,cs),
(417,85,o),
(417,302,o),
(417,304,cs),
(417,476,o),
(351,508,o),
(240,508,cs)
);
},
{
closed = 1;
nodes = (
(304,125,ls),
(304,94,o),
(305,60,o),
(246,60,cs),
(176,60,o),
(138,108,o),
(138,174,cs),
(138,232,o),
(176,280,o),
(244,280,cs),
(311,280,o),
(304,247,o),
(304,221,cs)
);
}
);
width = 465;
}
);
note = a;
unicode = 97;
userData = {
KernOnName = a;
};
},
{
glyphname = adieresis;
kernLeft = "0";
kernRight = "0";
lastChange = "2020-07-24 12:11:37 +0000";
layers = (
{
hints = (
{
horizontal = 1;
place = (0, 21);
target = up;
type = BottomGhost;
},
{
horizontal = 1;
place = (30, 45);
place = (30, 45);
type = Stem;
},
{
horizontal = 1;
place = (280, 67);
place = (280, 67);
type = Stem;
},
{
horizontal = 1;
place = (430, 78);
place = (430, 78);
type = Stem;
},
{
place = (85, 111);
place = (85, 111);
type = Stem;
},
{
place = (354, 114);
place = (354, 114);
type = Stem;
}
);
layerId = m01;
shapes = (
{
closed = 1;
nodes = (
(63,607,o),
(98,578,o),
(132,578,cs),
(166,578,o),
(201,607,o),
(201,647,cs),
(201,686,o),
(166,716,o),
(132,716,cs),
(98,716,o),
(63,686,o),
(63,647,cs)
);
},
{
closed = 1;
nodes = (
(271,607,o),
(306,578,o),
(340,578,cs),
(374,578,o),
(409,607,o),
(409,647,cs),
(409,686,o),
(374,716,o),
(340,716,cs),
(306,716,o),
(271,686,o),
(271,647,cs)
);
},
{
closed = 1;
nodes = (
(111,508,ls),
(64,508,o),
(40,467,o),
(40,434,cs),
(40,393,o),
(51,381,o),
(86,381,cs),
(148,381,o),
(143,448,o),
(216,448,cs),
(275,448,o),
(305,429,o),
(305,367,cs),
(305,358,ls),
(305,343,o),
(293,337,o),
(286,337,cs),
(266,337,o),
(261,348,o),
(202,348,cs),
(99,348,o),
(12,279,o),
(12,173,cs),
(12,53,o),
(106,-2,o),
(184,-2,cs),
(271,-2,o),
(266,24,o),
(306,24,cs),
(329,24,o),
(327,0,o),
(357,0,cs),
(419,0,ls),
(437,0,o),
(460,1,o),
(460,25,cs),
(460,55,o),
(417,53,o),
(417,83,cs),
(417,85,o),
(417,302,o),
(417,304,cs),
(417,476,o),
(351,508,o),
(240,508,cs)
);
},
{
closed = 1;
nodes = (
(304,125,ls),
(304,94,o),
(305,60,o),
(246,60,cs),
(176,60,o),
(138,108,o),
(138,174,cs),
(138,232,o),
(176,280,o),
(244,280,cs),
(311,280,o),
(304,247,o),
(304,221,cs)
);
}
);
width = 465;
}
);
metricLeft = a;
metricRight = a;
note = adieresis;
unicode = 228;
},
{
glyphname = b;
kernLeft = "0";
kernRight = "0";
lastChange = "2020-07-24 12:08:21 +0000";
layers = (
{
hints = (
{
horizontal = 1;
place = (0, 21);
target = up;
type = BottomGhost;
},
{
horizontal = 1;
place = (441, 59);
place = (441, 59);
type = Stem;
},
{
horizontal = 1;
place = (700, -20);
target = down;
type = TopGhost;
},
{
place = (40, 116);
place = (40, 116);
type = Stem;
},
{
place = (329, 121);
place = (329, 121);
type = Stem;
}
);
layerId = m01;
shapes = (
{
closed = 1;
nodes = (
(177,617,ls),
(177,688,o),
(156,700,o),
(121,700,cs),
(66,700,ls),
(50,700,o),
(25,699,o),
(25,675,cs),
(25,645,o),
(64,647,o),
(64,617,cs),
(64,83,ls),
(64,53,o),
(25,55,o),
(25,25,cs),
(25,1,o),
(50,0,o),
(66,0,cs),
(120,0,ls),
(144,0,o),
(145,21,o),
(174,21,cs),
(207,21,o),
(211,-2,o),
(275,-2,cs),
(392,-2,o),
(501,97,o),
(501,250,cs),
(501,403,o),
(402,502,o),
(275,502,cs),
(234,502,o),
(204,485,o),
(188,485,cs),
(181,485,o),
(177,489,o),
(177,500,cs)
);
},
{
closed = 1;
nodes = (
(177,332,ls),
(177,377,o),
(202,429,o),
(265,429,cs),
(337,429,o),
(375,336,o),
(375,250,cs),
(375,149,o),
(337,71,o),
(264,71,cs),
(208,73,o),
(177,127,o),
(177,176,cs)
);
}
);
width = 516;
}
);
metricLeft = h;
metricRight = o;
note = b;
unicode = 98;
},
{
glyphname = c;
kernLeft = "0";
kernRight = "0";
lastChange = "2020-07-24 12:12:10 +0000";
layers = (
{
hints = (
{
horizontal = 1;
place = (-15, 65);
place = (-15, 65);
type = Stem;
},
{
horizontal = 1;
place = (436, 70);
place = (436, 70);
type = Stem;
},
{
place = (51, 130);
place = (51, 130);
type = Stem;
},
{
place = (325, 119);
place = (325, 119);
type = Stem;
}
);
layerId = m01;
shapes = (
{
closed = 1;
nodes = (
(380,-8,o),
(457,79,o),
(457,151,cs),
(457,185,o),
(437,215,o),
(399,215,cs),
(373,215,o),
(337,193,o),
(337,150,cs),
(337,129,o),
(344,126,o),
(344,107,cs),
(344,77,o),
(311,63,o),
(279,63,cs),
(198,63,o),
(141,156,o),
(141,242,cs),
(141,343,o),
(185,433,o),
(257,433,cs),
(331,433,o),
(320,357,o),
(392,357,cs),
(427,357,o),
(441,378,o),
(441,410,cs),
(441,442,o),
(409,508,o),
(361,508,cs),
(328,508,o),
(317,490,o),
(301,490,cs),
(285,490,o),
(288,508,o),
(251,508,cs),
(124,508,o),
(15,399,o),
(15,246,cs),
(15,93,o),
(126,-8,o),
(276,-8,cs)
);
}
);
width = 467;
}
);
metricLeft = o;
metricRight = "=o-5";
note = c;
unicode = 99;
},
{
glyphname = d;
kernLeft = "0";
kernRight = "0";
lastChange = "2025-07-23 16:36:55 +0000";
layers = (
{
hints = (
{
horizontal = 1;
place = (13, 67);
place = (13, 67);
type = Stem;
},
{
horizontal = 1;
place = (439, 59);
place = (439, 59);
type = Stem;
},
{
horizontal = 1;
place = (713, -20);
target = down;
type = TopGhost;
},
{
place = (-391, 121);
place = (-391, 121);
type = Stem;
},
{
place = (-102, 116);
place = (-102, 116);
type = Stem;
}
);
layerId = m01;
shapes = (
{
closed = 1;
nodes = (
(452,617,ls),
(452,688,o),
(431,700,o),
(396,700,cs),
(341,700,ls),
(325,700,o),
(300,699,o),
(300,675,cs),
(300,645,o),
(339,647,o),
(339,617,cs),
(339,500,ls),
(339,489,o),
(335,485,o),
(328,485,cs),
(312,485,o),
(282,502,o),
(241,502,cs),
(114,502,o),
(15,403,o),
(15,250,cs),
(15,97,o),
(124,-2,o),
(241,-2,cs),
(305,-2,o),
(309,21,o),
(342,21,cs),
(371,21,o),
(372,0,o),
(396,0,cs),
(450,0,ls),
(466,0,o),
(491,1,o),
(491,25,cs),
(491,55,o),
(452,53,o),
(452,83,cs)
);
},
{
closed = 1;
nodes = (
(339,176,ls),
(339,127,o),
(308,73,o),
(252,71,cs),
(179,71,o),
(141,149,o),
(141,250,cs),
(141,336,o),
(179,429,o),
(251,429,cs),
(314,429,o),
(339,377,o),
(339,332,cs)
);
}
);
width = 516;
}
);
metricLeft = o;
metricRight = l;
note = d;
unicode = 100;
},
{
glyphname = e;
kernLeft = "0";
kernRight = "0";
lastChange = "2020-07-24 12:12:20 +0000";
layers = (
{
hints = (
{
horizontal = 1;
place = (-15, 65);
place = (-15, 65);
type = Stem;
},
{
horizontal = 1;
place = (302, 69);
place = (302, 69);
type = Stem;
},
{
horizontal = 1;
place = (438, 68);
place = (438, 68);
type = Stem;
},
{
place = (19, 128);
place = (19, 128);
type = Stem;
},
{
place = (317, 104);
place = (317, 104);
type = Stem;
}
);
layerId = m01;
shapes = (
{
closed = 1;
nodes = (
(344,71,o),
(285,62,o),
(259,62,cs),
(200,62,o),
(146,101,o),
(146,168,cs),
(146,195,o),
(146,205,o),
(246,227,cs),
(363,253,ls),
(418,265,o),
(459,289,o),
(459,348,cs),
(459,419,o),
(389,512,o),
(260,512,cs),
(116,512,o),
(15,417,o),
(15,249,cs),
(15,91,o),
(117,-5,o),
(255,-5,cs),
(359,-5,o),
(457,79,o),
(457,151,cs),
(457,185,o),
(437,215,o),
(399,215,cs),
(373,215,o),
(337,193,o),
(337,150,cs),
(337,129,o),
(344,126,o),
(344,107,cs)
);
},
{
closed = 1;
nodes = (
(141,355,o),
(172,435,o),
(256,428,cs),
(362,419,o),
(381,331,o),
(325,318,cs),
(221,295,ls),
(174,285,o),
(142,276,o),
(137,265,c)
);
}
);
width = 469;
}
);
metricLeft = o;
metricRight = c;
note = e;
unicode = 101;
},
{
glyphname = f;
kernLeft = "0";
kernRight = "0";
lastChange = "2020-07-24 12:13:01 +0000";
layers = (
{
hints = (
{
horizontal = 1;
place = (0, 21);
target = up;
type = BottomGhost;
},
{
horizontal = 1;
place = (505, -20);
target = down;
type = TopGhost;
},
{
horizontal = 1;
place = (613, 112);
place = (613, 112);
type = Stem;
},
{
place = (142, 114);
place = (142, 114);
type = Stem;
}
);
layerId = m01;
shapes = (
{
closed = 1;
nodes = (
(107,423,ls),
(123,423,o),
(128,414,o),
(128,400,cs),
(128,82,ls),
(128,52,o),
(90,55,o),
(90,25,cs),
(90,1,o),
(107,0,o),
(123,0,cs),
(240,0,ls),
(256,0,o),
(281,1,o),
(281,25,cs),
(281,55,o),
(242,52,o),
(242,82,cs),
(242,373,ls),
(242,399,o),
(234,423,o),
(205,423,cs),
(273,423,ls),
(300,423,o),
(302,389,o),
(334,389,cs),
(357,389,o),
(371,412,o),
(371,445,cs),
(371,478,o),
(356,499,o),
(314,499,cs),
(255,499,ls),
(235,499,o),
(222,502,o),
(222,522,cs),
(222,583,ls),
(222,609,o),
(231,617,o),
(246,617,cs),
(269,617,o),
(286,596,o),
(320,596,cs),
(354,596,o),
(374,617,o),
(374,648,cs),
(374,691,o),
(362,708,o),
(298,708,cs),
(228,708,ls),
(159,708,o),
(128,673,o),
(128,610,cs),
(128,522,ls),
(128,508,o),
(123,499,o),
(107,499,cs),
(31,499,ls),
(12,499,o),
(6,476,o),
(6,461,cs),
(6,446,o),
(12,423,o),
(31,423,cs)
);
}
);
width = 384;
}
);
note = f;
unicode = 102;
userData = {
KernOnName = f;
};
},
{
glyphname = g;
kernLeft = "0";
kernRight = "0";
lastChange = "2020-07-24 12:13:33 +0000";
layers = (
{
hints = (
{
horizontal = 1;
place = (-253, 64);
place = (-253, 64);
type = Stem;
},
{
horizontal = 1;
place = (34, 63);
place = (34, 63);
type = Stem;
},
{
horizontal = 1;
place = (433, 69);
place = (433, 69);
type = Stem;
},
{
horizontal = 1;
place = (515, 56);
place = (515, 56);
type = Stem;
},
{
place = (1223, 467);
place = (1223, 467);
type = Stem;
}
);
layerId = m01;
shapes = (
{
closed = 1;
nodes = (
(386,68,o),
(492,156,o),
(492,286,cs),
(492,432,o),
(371,463,o),
(371,497,cs),
(371,505,o),
(378,519,o),
(401,519,cs),
(439,519,o),
(414,477,o),
(454,477,cs),
(482,477,o),
(505,495,o),
(505,513,cs),
(505,540,o),
(474,568,o),
(438,568,cs),
(386,568,o),
(352,504,o),
(323,500,cs),
(307,498,o),
(283,502,o),
(261,502,cs),
(137,502,o),
(30,412,o),
(30,282,cs),
(30,213,o),
(64,155,o),
(114,117,c),
(78,80,o),
(51,61,o),
(51,30,cs),
(51,-79,o),
(387,-11,o),
(387,-115,cs),
(387,-154,o),
(339,-183,o),
(271,-183,cs),
(184,-183,o),
(175,-142,o),
(172,-141,c),
(190,-93,o),
(160,-57,o),
(106,-57,cs),
(58,-57,o),
(38,-85,o),
(38,-120,cs),
(38,-206,o),
(148,-250,o),
(246,-250,cs),
(351,-250,o),
(488,-199,o),
(488,-100,cs),
(488,-29,o),
(416,15,o),
(263,15,cs),
(240,15,o),
(140,12,o),
(140,38,cs),
(140,66,o),
(162,76,o),
(171,85,c),
(170,85,l),
(199,74,o),
(229,68,o),
(261,68,cs)
);
},
{
closed = 1;
nodes = (
(330,431,o),
(366,355,o),
(366,285,cs),
(366,203,o),
(330,136,o),
(261,136,cs),
(193,136,o),
(156,211,o),
(156,281,cs),
(156,366,o),
(193,431,o),
(261,431,cs)
);
}
);
width = 535;
}
);
note = g;
unicode = 103;
userData = {
KernOnName = g;
};
},
{
glyphname = h;
kernLeft = "0";
kernRight = "0";
lastChange = "2020-07-24 12:08:21 +0000";
layers = (
{
hints = (
{
horizontal = 1;
place = (0, 21);
target = up;
type = BottomGhost;
},
{
horizontal = 1;
place = (423, 62);
place = (423, 62);
type = Stem;
},
{
horizontal = 1;
place = (700, -20);
target = down;
type = TopGhost;
},
{
place = (85, 116);
place = (85, 116);
type = Stem;
},
{
place = (361, 123);
place = (361, 123);
type = Stem;
}
);
layerId = m01;
shapes = (
{
closed = 1;
nodes = (
(459,422,ls),
(459,480,o),
(405,509,o),
(328,509,cs),
(259,509,o),
(212,482,o),
(191,482,cs),
(182,482,o),
(178,487,o),
(178,499,cs),
(177,646,ls),
(177,674,o),
(149,699,o),
(119,699,cs),
(64,699,ls),
(48,699,o),
(35,688,o),
(35,676,cs),
(35,661,o),
(65,644,o),
(65,613,cs),
(65,82,ls),
(64,53,o),
(25,55,o),
(25,25,cs),
(25,1,o),
(50,0,o),
(66,0,cs),
(176,0,ls),
(192,0,o),
(217,1,o),
(217,25,cs),
(217,55,o),
(178,53,o),
(178,83,cs),
(178,332,ls),
(178,382,o),
(210,433,o),
(269,433,cs),
(332,433,o),
(346,397,o),
(346,345,cs),
(346,83,ls),
(345,54,o),
(306,56,o),
(306,26,cs),
(306,2,o),
(331,1,o),
(347,1,cs),
(457,1,ls),
(473,1,o),
(498,2,o),
(498,26,cs),
(498,56,o),
(459,54,o),
(459,82,cs)
);
}
);
width = 516;
}
);
metricLeft = n;
metricRight = n;
note = h;
unicode = 104;
},
{
glyphname = i;
kernLeft = "0";
kernRight = "0";
lastChange = "2020-07-24 12:08:21 +0000";
layers = (
{
hints = (
{
horizontal = 1;
place = (0, 21);
target = up;
type = BottomGhost;
},
{
horizontal = 1;
place = (707, -20);
target = down;
type = TopGhost;
},
{
place = (79, 116);
place = (79, 116);
type = Stem;
}
);
layerId = m01;
shapes = (
{
closed = 1;
nodes = (
(84,712,o),
(33,681,o),
(33,634,cs),
(33,596,o),
(69,568,o),
(107,568,cs),
(149,568,o),
(203,598,o),
(203,652,cs),
(203,694,o),
(162,712,o),
(128,712,cs)
);
},
{
closed = 1;
nodes = (
(65,83,ls),
(65,53,o),
(26,55,o),
(26,25,cs),
(26,1,o),
(51,0,o),
(67,0,cs),
(177,0,ls),
(193,0,o),
(218,1,o),
(218,25,cs),
(218,55,o),
(179,53,o),
(179,83,cs),
(178,417,ls),
(178,447,o),
(217,445,o),
(217,475,cs),
(217,499,o),
(192,500,o),
(176,500,cs),
(66,500,ls),
(50,500,o),
(25,499,o),
(25,475,cs),
(25,445,o),
(64,447,o),
(65,418,cs)
);
}
);
width = 243;
}
);
metricLeft = n;
metricRight = l;
note = i;
unicode = 105;
userData = {
KernOnName = i;
};
},
{
glyphname = j;
kernLeft = "0";
kernRight = "0";
lastChange = "2020-07-24 12:14:03 +0000";
layers = (
{
hints = (
{
horizontal = 1;
place = (-255, 115);
place = (-255, 115);
type = Stem;
},
{
horizontal = 1;
place = (578, 129);
place = (578, 129);
type = Stem;
},
{
place = (153, 114);
place = (153, 114);
type = Stem;
}
);
layerId = m01;
shapes = (
{
closed = 1;
nodes = (
(104,712,o),
(53,681,o),
(53,634,cs),
(53,596,o),
(89,568,o),
(127,568,cs),
(169,568,o),
(223,598,o),
(223,652,cs),
(223,694,o),
(182,712,o),
(148,712,cs)
);
},
{
closed = 1;
nodes = (
(196,417,ls),
(196,447,o),
(236,445,o),
(236,475,cs),
(236,499,o),
(211,500,o),
(195,500,cs),
(85,500,ls),
(69,500,o),
(44,499,o),
(44,475,cs),
(44,445,o),
(83,447,o),
(83,417,cs),
(83,-106,ls),
(83,-132,o),
(74,-143,o),
(59,-143,cs),
(36,-143,o),
(24,-113,o),
(-14,-113,cs),
(-52,-113,o),
(-70,-140,o),
(-70,-171,cs),
(-70,-214,o),
(-30,-252,o),
(34,-252,cs),
(131,-252,o),
(196,-189,o),
(196,-114,cs)
);
}
);
width = 261;
}
);
metricRight = i;
note = j;
unicode = 106;
},
{
glyphname = k;
kernLeft = "0";
kernRight = "0";
lastChange = "2020-07-24 12:14:46 +0000";
layers = (
{
hints = (
{
horizontal = 1;
place = (-1, 21);
target = up;
type = BottomGhost;
},
{
horizontal = 1;
place = (373, 143);
place = (373, 143);
type = Stem;
},
{
horizontal = 1;
place = (700, -20);
target = down;
type = TopGhost;
},
{
place = (74, 113);
place = (74, 113);
type = Stem;
},
{
place = (340, 202);
place = (340, 202);
type = Stem;
}
);
layerId = m01;
shapes = (
{
closed = 1;
nodes = (
(187,291,l),
(187,647,ls),
(187,675,o),
(171,700,o),
(141,700,cs),
(74,700,ls),
(58,700,o),
(45,689,o),
(45,678,cs),
(45,671,o),
(51,665,o),
(52,663,c),
(67,644,o),
(75,631,o),
(75,614,cs),
(75,82,ls),
(75,67,o),
(65,60,o),
(55,53,cs),
(45,46,o),
(35,39,o),
(35,24,cs),
(35,0,o),
(60,-1,o),
(76,-1,cs),
(185,-1,ls),
(201,-1,o),
(226,0,o),
(226,24,cs),
(226,35,o),
(221,43,o),
(212,49,cs),
(196,60,o),
(187,68,o),
(187,82,cs),
(187,206,ls),
(187,227,o),
(200,237,o),
(214,237,cs),
(218,237,ls),
(237,237,o),
(251,227,o),
(265,203,cs),
(319,114,ls),
(330,95,o),
(337,85,o),
(337,75,cs),
(337,64,o),
(334,62,o),
(325,53,cs),
(319,47,o),
(312,40,o),
(312,27,cs),
(312,1,o),
(337,0,o),
(353,0,cs),
(486,0,ls),
(502,0,o),
(527,1,o),
(527,29,cs),
(527,44,o),
(514,51,o),
(502,57,cs),
(490,63,o),
(472,68,o),
(446,111,cs),
(346,276,ls),
(327,307,o),
(310,327,o),
(310,353,cs),
(310,378,o),
(327,398,o),
(357,398,cs),
(380,398,o),
(390,390,o),
(401,385,cs),
(411,380,o),
(428,369,o),
(447,369,cs),
(483,369,o),
(496,404,o),
(496,430,cs),
(496,470,o),
(467,506,o),
(417,506,cs),
(378,506,o),
(344,491,o),
(306,442,cs)
);
}
);
width = 537;
}
);
metricLeft = k;
note = k;
unicode = 107;
},
{
glyphname = l;
kernLeft = "0";
kernRight = "0";
lastChange = "2020-07-24 12:08:21 +0000";
layers = (
{
hints = (
{
horizontal = 1;
place = (0, 21);
target = up;
type = BottomGhost;
},
{
horizontal = 1;
place = (700, -20);
target = down;
type = TopGhost;
},
{
place = (55, 116);
place = (55, 116);
type = Stem;
}
);
layerId = m01;
shapes = (
{
closed = 1;
nodes = (
(172,591,l),
(171,647,ls),
(171,675,o),
(143,700,o),
(113,700,cs),
(58,700,ls),
(42,700,o),
(29,689,o),
(29,677,cs),
(29,662,o),
(59,645,o),
(59,614,cs),
(59,83,ls),
(59,53,o),
(20,55,o),
(20,25,cs),
(20,1,o),
(45,0,o),
(61,0,cs),
(170,0,ls),
(186,0,o),
(211,1,o),
(211,25,cs),
(211,55,o),
(172,53,o),
(172,83,cs)
);
}
);
width = 236;
}
);
note = l;
unicode = 108;
userData = {
KernOnName = l;
};
},
{
glyphname = m;
kernLeft = "0";
kernRight = "0";
lastChange = "2020-07-24 12:08:21 +0000";
layers = (
{
hints = (
{
horizontal = 1;
place = (-5, 50);
place = (-5, 50);
type = Stem;
},
{
horizontal = 1;
place = (444, 47);
place = (444, 47);
type = Stem;
},
{
place = (61, 114);
place = (61, 114);
type = Stem;
},
{
place = (323, 114);
place = (323, 114);
type = Stem;
},
{
place = (585, 114);
place = (585, 114);
type = Stem;
}
);
layerId = m01;
shapes = (
{
closed = 1;
nodes = (
(67,511,ls),
(46,511,o),
(33,500,o),
(33,482,cs),
(33,454,o),
(63,455,o),
(63,424,cs),
(64,83,ls),
(64,53,o),
(25,55,o),
(25,25,cs),
(25,1,o),
(50,0,o),
(66,0,cs),
(175,0,ls),
(191,0,o),
(216,1,o),
(216,25,cs),
(216,55,o),
(177,53,o),
(177,83,cs),
(177,333,ls),
(177,387,o),
(185,444,o),
(251,444,cs),
(314,444,o),
(326,384,o),
(326,332,cs),
(326,83,ls),
(326,53,o),
(287,55,o),
(287,25,cs),
(287,1,o),
(312,0,o),
(328,0,cs),
(437,0,ls),
(453,0,o),
(478,1,o),
(478,25,cs),
(478,55,o),
(439,53,o),
(439,83,cs),
(439,333,ls),
(439,387,o),
(450,444,o),
(516,444,cs),
(579,444,o),
(587,384,o),
(587,332,cs),
(587,83,ls),
(587,53,o),
(548,55,o),
(548,25,cs),
(548,1,o),
(573,0,o),
(589,0,cs),
(698,0,ls),
(714,0,o),
(739,1,o),
(739,25,cs),
(739,55,o),
(700,53,o),
(700,83,cs),
(700,424,ls),
(700,482,o),
(652,510,o),
(562,510,cs),
(474,510,o),
(472,479,o),
(421,479,cs),
(370,479,o),
(370,508,o),
(302,510,cs),
(235,512,o),
(223,484,o),
(191,484,cs),
(162,484,o),
(146,511,o),
(90,511,cs)
);
}
);
width = 757;
}
);
metricLeft = n;
metricRight = n;
note = m;
unicode = 109;
userData = {
KernOnName = m;
};
},
{
glyphname = n;
lastChange = "2020-07-24 12:15:23 +0000";
layers = (
{
hints = (
{
horizontal = 1;
place = (0, 21);
target = up;
type = BottomGhost;
},
{
horizontal = 1;
place = (449, 61);
place = (449, 61);
type = Stem;
},
{
place = (76, 113);
place = (76, 113);
type = Stem;
},
{
place = (357, 114);
place = (357, 114);
type = Stem;
}
);
layerId = m01;
shapes = (
{
closed = 1;
nodes = (
(60,511,ls),
(39,511,o),
(26,500,o),
(26,482,cs),
(26,454,o),
(56,456,o),
(56,425,cs),
(56,83,ls),
(56,53,o),
(17,55,o),
(17,25,cs),
(17,1,o),
(42,0,o),
(58,0,cs),
(167,0,ls),
(183,0,o),
(208,1,o),
(208,25,cs),
(208,55,o),
(169,53,o),
(169,83,cs),
(169,314,ls),
(169,368,o),
(195,433,o),
(261,433,cs),
(324,433,o),
(338,397,o),
(338,345,cs),
(338,83,ls),
(338,53,o),
(299,55,o),
(299,25,cs),
(299,2,o),
(322,0,o),
(338,0,cs),
(451,0,ls),
(467,0,o),
(490,2,o),
(490,25,cs),
(490,55,o),
(451,53,o),
(451,83,cs),
(451,425,ls),
(451,483,o),
(397,510,o),
(307,510,cs),
(219,510,o),
(201,484,o),
(172,484,cs),
(143,484,o),
(139,511,o),
(83,511,cs)
);
}
);
width = 503;
}
);
note = n;
unicode = 110;
userData = {
KernOnName = n;
};
},
{
glyphname = o;
kernLeft = "0";
kernRight = "0";
lastChange = "2020-07-24 12:08:21 +0000";
layers = (
{
hints = (
{
horizontal = 1;
place = (-8, 72);
place = (-8, 72);
type = Stem;
},
{
horizontal = 1;
place = (422, 82);
place = (422, 82);
type = Stem;
},
{
place = (35, 126);
place = (35, 126);
type = Stem;
},
{
place = (377, 126);
place = (377, 126);
type = Stem;
}
);
layerId = m01;
shapes = (
{
closed = 1;
nodes = (
(15,95,o),
(124,-8,o),
(251,-8,cs),
(378,-8,o),
(487,99,o),
(487,254,cs),
(487,409,o),
(388,512,o),
(251,512,cs),
(124,512,o),
(15,405,o),
(15,250,cs)
);
},
{
closed = 1;
nodes = (
(323,434,o),
(361,341,o),
(361,254,cs),
(361,151,o),
(323,70,o),
(251,70,cs),
(179,70,o),
(141,163,o),
(141,250,cs),
(141,353,o),
(179,434,o),
(251,434,cs)
);
}
);
width = 502;
}
);
note = o;
unicode = 111;
userData = {
KernOnName = o;
};
},
{
glyphname = odieresis;
kernLeft = "0";
kernRight = "0";
lastChange = "2020-07-24 12:14:58 +0000";
layers = (
{
hints = (
{
horizontal = 1;
place = (-8, 72);
place = (-8, 72);
type = Stem;
},
{
horizontal = 1;
place = (422, 82);
place = (422, 82);
type = Stem;
},
{
place = (35, 126);
place = (35, 126);
type = Stem;
},
{
place = (377, 126);
place = (377, 126);
type = Stem;
}
);
layerId = m01;
shapes = (
{
closed = 1;
nodes = (
(81,607,o),
(116,578,o),
(150,578,cs),
(184,578,o),
(219,607,o),
(219,647,cs),
(219,686,o),
(184,716,o),
(150,716,cs),
(116,716,o),
(81,686,o),
(81,647,cs)
);
},
{
closed = 1;
nodes = (
(289,607,o),
(324,578,o),
(358,578,cs),
(392,578,o),
(427,607,o),
(427,647,cs),
(427,686,o),
(392,716,o),
(358,716,cs),
(324,716,o),
(289,686,o),
(289,647,cs)
);
},
{
closed = 1;
nodes = (
(15,95,o),
(124,-8,o),
(251,-8,cs),
(378,-8,o),
(487,99,o),
(487,254,cs),
(487,409,o),
(388,512,o),
(251,512,cs),
(124,512,o),
(15,405,o),
(15,250,cs)
);
},
{
closed = 1;
nodes = (
(323,434,o),
(361,341,o),
(361,254,cs),
(361,151,o),
(323,70,o),
(251,70,cs),
(179,70,o),
(141,163,o),
(141,250,cs),
(141,353,o),
(179,434,o),
(251,434,cs)
);
}
);
width = 502;
}
);
metricLeft = o;
metricRight = o;
note = odieresis;
unicode = 246;
},
{
glyphname = p;
kernLeft = "0";
kernRight = "0";
lastChange = "2020-07-24 12:09:59 +0000";
layers = (
{
hints = (
{
horizontal = 1;
place = (-324, 21);
target = up;
type = BottomGhost;
},
{
horizontal = 1;
place = (-58, 62);
place = (-58, 62);
type = Stem;
},
{
horizontal = 1;
place = (361, 66);
place = (361, 66);
type = Stem;
},
{
place = (588, 113);
place = (588, 113);
type = Stem;
},
{
place = (889, 109);
place = (889, 109);
type = Stem;
}
);
layerId = m01;
shapes = (
{
closed = 1;
nodes = (
(177,0,ls),
(177,11,o),
(181,15,o),
(188,15,cs),
(204,15,o),
(234,-2,o),
(275,-2,cs),
(402,-2,o),
(501,97,o),
(501,250,cs),
(501,403,o),
(392,502,o),
(275,502,cs),
(211,502,o),
(207,479,o),
(174,479,cs),
(145,479,o),
(144,500,o),
(120,500,cs),
(66,500,ls),
(50,500,o),
(25,499,o),
(25,475,cs),
(25,445,o),
(64,447,o),
(64,417,cs),
(64,-167,ls),
(64,-197,o),
(25,-195,o),
(25,-225,cs),
(25,-249,o),
(50,-250,o),
(66,-250,cs),
(175,-250,ls),
(191,-250,o),
(216,-249,o),
(216,-225,cs),
(216,-195,o),
(177,-197,o),
(177,-167,cs)
);
},
{
closed = 1;
nodes = (
(177,324,ls),
(177,373,o),
(208,427,o),
(264,429,cs),
(337,429,o),
(375,351,o),
(375,250,cs),
(375,164,o),
(337,71,o),
(265,71,cs),
(202,71,o),
(177,123,o),
(177,168,cs)
);
}
);
width = 516;
}
);
metricLeft = n;
metricRight = o;
note = p;
unicode = 112;
userData = {
KernOnName = p;
};
},
{
glyphname = q;
kernLeft = "0";
kernRight = "0";
lastChange = "2020-07-24 12:10:04 +0000";
layers = (
{
hints = (
{
horizontal = 1;
place = (-250, 21);
target = up;
type = BottomGhost;
},
{
horizontal = 1;
place = (16, 62);
place = (16, 62);
type = Stem;
},
{
horizontal = 1;
place = (435, 66);
place = (435, 66);
type = Stem;
},
{
place = (5, 109);
place = (5, 109);
type = Stem;
},
{
place = (302, 113);
place = (302, 113);
type = Stem;
}
);
layerId = m01;
shapes = (
{
closed = 1;
nodes = (
(15,89,o),
(74,-2,o),
(218,-2,cs),
(246,-2,o),
(284,5,o),
(308,17,cs),
(320,23,o),
(327,28,o),
(335,28,c),
(335,-167,ls),
(335,-181,o),
(326,-189,o),
(316,-196,cs),
(306,-203,o),
(292,-210,o),
(292,-225,cs),
(292,-249,o),
(309,-250,o),
(325,-250,cs),
(458,-250,ls),
(474,-250,o),
(491,-249,o),
(491,-225,cs),
(491,-211,o),
(478,-203,o),
(468,-196,cs),
(458,-189,o),
(448,-182,o),
(448,-167,cs),
(448,370,ls),
(448,388,o),
(454,402,o),
(468,416,cs),
(479,427,o),
(491,438,o),
(491,458,cs),
(491,485,o),
(470,501,o),
(440,501,cs),
(221,501,ls),
(88,501,o),
(15,410,o),
(15,246,cs)
);
},
{
closed = 1;
nodes = (
(335,168,ls),
(335,123,o),
(306,79,o),
(248,79,cs),
(171,79,o),
(137,164,o),
(137,245,cs),
(137,350,o),
(179,426,o),
(260,426,cs),
(285,426,ls),
(347,426,o),
(335,387,o),
(335,350,cs)
);
}
);
width = 509;
}
);
metricLeft = o;
metricRight = n;
note = q;
unicode = 113;
},
{
glyphname = r;
kernLeft = "0";
kernRight = "0";
lastChange = "2020-07-24 12:15:55 +0000";
layers = (
{
hints = (
{
horizontal = 1;
place = (0, 21);
target = up;
type = BottomGhost;
},
{
horizontal = 1;
place = (368, 144);
place = (368, 144);
type = Stem;
},
{
place = (1511, 114);
place = (1511, 114);
type = Stem;
},
{
place = (1695, 140);
place = (1695, 140);
type = Stem;
}
);
layerId = m01;
shapes = (
{
closed = 1;
nodes = (
(56,83,ls),
(56,53,o),
(17,55,o),
(17,25,cs),
(17,1,o),
(42,0,o),
(58,0,cs),
(167,0,ls),
(183,0,o),
(208,1,o),
(208,25,cs),
(208,55,o),
(169,53,o),
(169,83,cs),
(169,185,o),
(170,217,o),
(170,327,cs),
(170,386,o),
(227,435,o),
(260,434,c),
(259,398,o),
(296,368,o),
(333,368,cs),
(367,368,o),
(404,392,o),
(404,435,cs),
(404,473,o),
(377,512,o),
(332,512,cs),
(284,512,o),
(193,464,o),
(173,464,cs),
(153,464,o),
(152,500,o),
(104,500,cs),
(59,500,ls),
(43,500,o),
(18,499,o),
(18,475,cs),
(18,445,o),
(57,447,o),
(57,417,cs)
);
}
);
width = 404;
}
);
metricLeft = n;
note = r;
unicode = 114;
userData = {
KernOnName = r;
};
},
{
glyphname = s;
kernLeft = "0";
kernRight = "0";
lastChange = "2020-07-24 12:16:05 +0000";
layers = (
{
hints = (
{
horizontal = 1;
place = (-2, 70);
place = (-2, 70);
type = Stem;
},
{
horizontal = 1;
place = (444, 64);
place = (444, 64);
type = Stem;
},
{
place = (35, 118);
place = (35, 118);
type = Stem;
},
{
place = (328, 134);
place = (328, 134);
type = Stem;
}
);
layerId = m01;
shapes = (
{
closed = 1;
nodes = (
(331,84,o),
(266,68,o),
(226,68,cs),
(138,68,o),
(111,146,o),
(55,146,cs),
(30,146,o),
(10,131,o),
(10,99,cs),
(10,58,o),
(43,-2,o),
(89,-2,cs),
(114,-2,o),
(133,19,o),
(142,19,cs),
(159,19,o),
(195,-2,o),
(251,-2,cs),
(357,-2,o),
(439,72,o),
(439,146,cs),
(439,181,o),
(420,217,o),
(392,240,cs),
(305,311,o),
(131,330,o),
(131,387,cs),
(131,413,o),
(166,444,o),
(214,444,cs),
(294,444,o),
(339,357,o),
(396,357,cs),
(420,357,o),
(440,375,o),
(440,407,cs),
(440,448,o),
(407,508,o),
(362,508,cs),
(336,508,o),
(317,490,o),
(308,490,cs),
(291,490,o),
(256,508,o),
(203,508,cs),
(82,508,o),
(22,432,o),
(22,371,cs),
(22,341,o),
(37,307,o),
(60,288,cs),
(143,219,o),
(331,202,o),
(331,129,cs)
);
}
);
width = 455;
}
);
note = s;
unicode = 115;
userData = {
KernOnName = s;
};
},
{
glyphname = germandbls;
kernLeft = "0";
kernRight = "0";
lastChange = "2020-07-24 12:16:17 +0000";
layers = (
{
hints = (
{
horizontal = 1;
place = (0, 21);
target = up;
type = BottomGhost;
},
{
horizontal = 1;
place = (389, 72);
place = (389, 72);
type = Stem;
},
{
horizontal = 1;
place = (627, 76);
place = (627, 76);
type = Stem;
},
{
place = (71, 114);
place = (71, 114);
type = Stem;
},
{
place = (218, 184);
place = (218, 184);
type = Stem;
},
{
place = (432, 126);
place = (432, 126);
type = Stem;
},
{
place = (412, 98);
place = (412, 98);
type = Stem;
},
{
horizontal = 1;
place = (-4, 65);
place = (-4, 65);
type = Stem;
},
{
place = (190, 97);
place = (190, 97);
type = Stem;
}
);
layerId = m01;
shapes = (
{
closed = 1;
nodes = (
(88,0,l),
(140,0,ls),
(176,0,o),
(171,50,o),
(171,83,cs),
(171,528,ls),
(171,590,o),
(215,627,o),
(266,627,cs),
(316,627,o),
(398,605,o),
(398,538,cs),
(398,469,o),
(309,461,o),
(237,461,cs),
(228,461,ls),
(195,461,o),
(197,389,o),
(227,389,cs),
(299,389,o),
(418,300,o),
(418,195,cs),
(418,149,o),
(417,61,o),
(344,61,cs),
(317,61,o),
(273,71,o),
(273,113,cs),
(273,129,o),
(283,132,o),
(283,151,cs),
(283,187,o),
(251,199,o),
(231,199,cs),
(192,199,o),
(176,173,o),
(176,140,cs),
(176,59,o),
(251,-4,o),
(346,-4,cs),
(461,-4,o),
(544,78,o),
(544,203,cs),
(544,366,o),
(388,395,o),
(388,415,cs),
(388,432,o),
(496,443,o),
(496,543,cs),
(496,663,o),
(364,703,o),
(270,703,cs),
(159,703,o),
(57,636,o),
(57,529,cs),
(57,83,ls),
(57,53,o),
(25,55,o),
(25,25,cs),
(25,1,o),
(46,0,o),
(60,0,cs)
);
}
);
width = 559;
}
);
metricLeft = h;
metricRight = o;
note = germandbls;
unicode = 223;
},
{
glyphname = t;
kernLeft = "0";
kernRight = "0";
lastChange = "2020-07-24 12:16:29 +0000";
layers = (
{
hints = (
{
horizontal = 1;
place = (-5, 53);
place = (-5, 53);
type = Stem;
},
{
horizontal = 1;
place = (447, 53);
place = (447, 53);
type = Stem;
},
{
horizontal = 1;
place = (648, 53);
place = (648, 53);
type = Stem;
},
{
place = (137, 120);
place = (137, 120);
type = Stem;
},
{
place = (303, 98);
place = (303, 98);
type = Stem;
}
);
layerId = m01;
shapes = (
{
closed = 1;
nodes = (
(242,647,ls),
(242,675,o),
(212,700,o),
(182,700,cs),
(127,700,ls),
(111,700,o),
(98,689,o),
(98,677,cs),
(98,662,o),
(128,645,o),
(128,614,cs),
(128,523,ls),
(128,509,o),
(123,500,o),
(107,500,cs),
(31,500,ls),
(12,500,o),
(6,478,o),
(6,463,cs),
(6,448,o),
(12,424,o),
(31,424,cs),
(107,424,ls),
(123,424,o),
(128,415,o),
(128,401,cs),
(128,80,ls),
(128,50,o),
(89,55,o),
(89,25,cs),
(89,1,o),
(114,0,o),
(130,0,cs),
(240,0,ls),
(256,0,o),
(281,1,o),
(281,25,cs),
(281,55,o),
(242,50,o),
(242,80,cs),
(242,374,ls),
(242,400,o),
(234,424,o),
(205,424,cs),
(273,424,ls),
(300,424,o),
(302,390,o),
(334,390,cs),
(357,390,o),
(371,414,o),
(371,447,cs),
(371,480,o),
(356,500,o),
(314,500,cs),
(275,500,ls),
(255,500,o),
(242,503,o),
(242,523,cs)
);
}
);
width = 381;
}
);
note = t;
unicode = 116;
},
{
glyphname = u;
kernLeft = "0";
kernRight = "0";
lastChange = "2025-07-23 16:20:19 +0000";
layers = (
{
hints = (
{
horizontal = 1;
place = (-10, 61);
place = (-10, 61);
type = Stem;
},
{
horizontal = 1;
place = (500, -20);
target = down;
type = TopGhost;
},
{
place = (53, 113);
place = (53, 113);
type = Stem;
},
{
place = (334, 114);
place = (334, 114);
type = Stem;
}
);
layerId = m01;
shapes = (
{
closed = 1;
nodes = (
(434,-10,ls),
(455,-10,o),
(468,1,o),
(468,13,cs),
(468,47,o),
(438,45,o),
(438,76,cs),
(438,391,l),
(437,447,ls),
(437,475,o),
(409,500,o),
(379,500,cs),
(324,500,ls),
(308,500,o),
(295,489,o),
(295,477,cs),
(295,462,o),
(325,445,o),
(325,414,cs),
(325,187,ls),
(325,133,o),
(299,68,o),
(233,68,cs),
(178,68,o),
(156,104,o),
(156,156,cs),
(156,391,l),
(155,447,ls),
(155,475,o),
(127,500,o),
(97,500,cs),
(42,500,ls),
(26,500,o),
(13,489,o),
(13,477,cs),
(13,462,o),
(43,445,o),
(43,414,cs),
(43,142,ls),
(43,58,o),
(107,-15,o),
(197,-15,cs),
(285,-15,o),
(293,21,o),
(327,21,cs),
(351,21,o),
(355,-10,o),
(411,-10,cs)
);
}
);
width = 485;
}
);
note = u;
unicode = 117;
userData = {
KernOnName = u;
};
},
{
glyphname = udieresis;
kernLeft = "0";
kernRight = "0";
lastChange = "2020-07-24 12:16:49 +0000";
layers = (
{
hints = (
{
horizontal = 1;
place = (21, 47);
place = (21, 47);
type = Stem;
},
{
horizontal = 1;
place = (578, 138);
place = (578, 138);
type = Stem;
},
{
place = (64, 138);
place = (64, 138);
type = Stem;
},
{
place = (336, 113);
place = (336, 113);
type = Stem;
},
{
place = (54, 113);
place = (54, 113);
type = Stem;
},
{
place = (279, 138);
place = (279, 138);
type = Stem;
},
{
horizontal = 1;
place = (-10, 21);
target = up;
type = BottomGhost;
},
{
horizontal = 1;
place = (-15, 83);
place = (-15, 83);
type = Stem;
}
);
layerId = m01;
shapes = (
{
closed = 1;
nodes = (
(53,607,o),
(88,578,o),
(122,578,cs),
(156,578,o),
(191,607,o),
(191,647,cs),
(191,686,o),
(156,716,o),
(122,716,cs),
(88,716,o),
(53,686,o),
(53,647,cs)
);
},
{
closed = 1;
nodes = (
(268,607,o),
(303,578,o),
(337,578,cs),
(371,578,o),
(406,607,o),
(406,647,cs),
(406,686,o),
(371,716,o),
(337,716,cs),
(303,716,o),
(268,686,o),
(268,647,cs)
);
},
{
closed = 1;
nodes = (
(434,-10,ls),
(455,-10,o),
(468,1,o),
(468,13,cs),
(468,47,o),
(438,45,o),
(438,76,cs),
(438,391,l),
(437,447,ls),
(437,475,o),
(409,500,o),
(379,500,cs),
(324,500,ls),
(308,500,o),
(295,489,o),
(295,477,cs),
(295,462,o),
(325,445,o),
(325,414,cs),
(325,187,ls),
(325,133,o),
(299,68,o),
(233,68,cs),
(178,68,o),
(156,104,o),
(156,156,cs),
(156,391,l),
(155,447,ls),
(155,475,o),
(127,500,o),
(97,500,cs),
(42,500,ls),
(26,500,o),
(13,489,o),
(13,477,cs),
(13,462,o),
(43,445,o),
(43,414,cs),
(43,142,ls),
(43,58,o),
(107,-15,o),
(197,-15,cs),
(285,-15,o),
(293,21,o),
(327,21,cs),
(351,21,o),
(355,-10,o),
(411,-10,cs)
);
}
);
width = 485;
}
);
metricLeft = u;
metricRight = u;
note = udieresis;
unicode = 252;
},
{
glyphname = v;
kernLeft = "0";
kernRight = "0";
lastChange = "2020-07-24 12:17:49 +0000";
layers = (
{
hints = (
{
horizontal = 1;
place = (0, 170);
place = (0, 170);
type = Stem;
},
{
place = (15, 156);
place = (15, 156);
type = Stem;
},
{
place = (332, 125);
place = (332, 125);
type = Stem;
},
{
place = (162, 204);
place = (162, 204);
type = Stem;
}
);
layerId = m01;
shapes = (
{
closed = 1;
nodes = (
(147,455,o),
(170,444,o),
(170,478,cs),
(170,500,o),
(125,500,o),
(113,500,cs),
(34,500,ls),
(23,500,o),
(0,500,o),
(0,478,cs),
(0,444,o),
(34,444,o),
(45,421,c),
(170,80,l),
(181,57,o),
(147,57,o),
(147,23,cs),
(147,0,o),
(170,0,o),
(181,0,cs),
(328,0,ls),
(340,0,o),
(351,0,o),
(351,23,cs),
(351,46,o),
(317,57,o),
(317,80,cs),
(317,125,o),
(445,295,o),
(445,420,cs),
(445,510,o),
(374,522,o),
(352,522,cs),
(295,522,o),
(280,482,o),
(280,460,cs),
(280,426,o),
(320,443,o),
(320,375,cs),
(320,341,o),
(272,170,o),
(249,170,cs),
(227,170,o),
(170,376,o),
(159,421,c)
);
}
);
width = 470;
}
);
note = v;
unicode = 118;
},
{
glyphname = w;
kernLeft = "0";
kernRight = "0";
lastChange = "2020-07-24 12:17:56 +0000";
layers = (
{
hints = (
{
horizontal = 1;
place = (0, 175);
place = (0, 175);
type = Stem;
},
{
place = (20, 166);
place = (20, 166);
type = Stem;
},
{
place = (190, 183);
place = (190, 183);
type = Stem;
},
{
place = (376, 151);
place = (376, 151);
type = Stem;
},
{
place = (689, 125);
place = (689, 125);
type = Stem;
},
{
place = (837, 192);
place = (837, 192);
type = Stem;
}
);
layerId = m01;
shapes = (
{
closed = 1;
nodes = (
(499,452,o),
(523,452,o),
(523,478,cs),
(523,500,o),
(500,500,o),
(489,500,cs),
(375,500,ls),
(364,500,o),
(341,500,o),
(341,478,cs),
(341,453,o),
(364,451,o),
(353,421,cs),
(319,326,o),
(286,175,o),
(265,175,cs),
(244,175,o),
(207,325,o),
(170,421,cs),
(157,454,o),
(181,444,o),
(181,478,cs),
(181,500,o),
(136,500,o),
(125,500,cs),
(34,500,ls),
(23,500,o),
(0,500,o),
(0,478,cs),
(0,444,o),
(47,445,o),
(57,421,cs),
(192,80,ls),
(202,56,o),
(170,57,o),
(170,23,cs),
(170,0,o),
(192,0,o),
(204,0,cs),
(319,0,ls),
(331,0,o),
(353,0,o),
(353,23,cs),
(353,57,o),
(321,56,o),
(331,80,cs),
(370,179,o),
(417,334,o),
(432,334,cs),
(447,334,o),
(494,179,o),
(533,80,cs),
(543,56,o),
(511,57,o),
(511,23,cs),
(511,0,o),
(533,0,o),
(545,0,cs),
(681,0,ls),
(692,0,o),
(703,0,o),
(703,23,cs),
(703,46,o),
(658,57,o),
(658,80,cs),
(658,125,o),
(794,296,o),
(794,420,cs),
(794,511,o),
(721,522,o),
(692,522,cs),
(635,522,o),
(624,476,o),
(624,454,cs),
(624,420,o),
(669,443,o),
(669,375,cs),
(669,341,o),
(631,175,o),
(610,175,cs),
(589,175,o),
(531,372,o),
(511,421,cs)
);
}
);
width = 819;
}
);
metricLeft = v;
metricRight = v;
note = w;
unicode = 119;
},
{
glyphname = x;
kernLeft = "0";
kernRight = "0";
lastChange = "2020-07-24 12:18:22 +0000";
layers = (
{
hints = (
{
horizontal = 1;
place = (0, 21);
target = up;
type = BottomGhost;
},
{
place = (188, 177);
place = (188, 177);
type = Stem;
},
{
place = (445, 227);
place = (445, 227);
type = Stem;
},
{
place = (30, 227);
place = (30, 227);
type = Stem;
}
);
layerId = m01;
shapes = (
{
closed = 1;
nodes = (
(195,421,l),
(183,451,o),
(233,445,o),
(233,475,cs),
(233,499,o),
(207,500,o),
(190,500,cs),
(63,500,ls),
(46,500,o),
(20,499,o),
(20,475,cs),
(20,445,o),
(48,448,o),
(71,419,c),
(169,269,ls),
(176,259,o),
(168,245,o),
(161,235,cs),
(56,81,l),
(33,52,o),
(5,55,o),
(5,25,cs),
(5,1,o),
(31,0,o),
(48,0,cs),
(182,0,ls),
(199,0,o),
(225,1,o),
(225,25,cs),
(225,55,o),
(175,49,o),
(187,79,c),
(209,124,o),
(230,194,o),
(250,194,cs),
(270,194,o),
(292,124,o),
(318,79,c),
(330,49,o),
(279,55,o),
(279,25,cs),
(279,1,o),
(305,0,o),
(322,0,cs),
(449,0,ls),
(466,0,o),
(492,1,o),
(492,25,cs),
(492,55,o),
(463,51,o),
(442,81,cs),
(336,235,ls),
(329,245,o),
(342,260,o),
(351,269,cs),
(412,330,o),
(471,400,o),
(471,462,cs),
(471,502,o),
(433,527,o),
(396,527,cs),
(355,527,o),
(323,485,o),
(323,451,cs),
(323,421,o),
(340,415,o),
(340,383,cs),
(340,363,o),
(289,296,o),
(271,290,c)
);
}
);
width = 497;
}
);
note = x;
unicode = 120;
},
{
glyphname = y;
kernLeft = "0";
kernRight = "0";
lastChange = "2020-07-24 12:18:33 +0000";
layers = (
{
hints = (
{
horizontal = 1;
place = (-250, 21);
target = up;
type = BottomGhost;
},
{
place = (211, 113);
place = (211, 113);
type = Stem;
},
{
place = (343, 125);
place = (343, 125);
type = Stem;
}
);
layerId = m01;
shapes = (
{
closed = 1;
nodes = (
(165,421,ls),
(152,458,o),
(146,500,o),
(89,500,cs),
(29,500,ls),
(17,500,o),
(-5,500,o),
(-5,478,cs),
(-5,444,o),
(41,445,o),
(51,421,cs),
(109,265,o),
(191,70,o),
(191,20,cs),
(191,-167,ls),
(191,-197,o),
(152,-195,o),
(152,-225,cs),
(152,-249,o),
(177,-250,o),
(193,-250,cs),
(302,-250,ls),
(318,-250,o),
(343,-249,o),
(343,-225,cs),
(343,-195,o),
(304,-197,o),
(304,-167,cs),
(304,20,ls),
(304,70,o),
(448,297,o),
(448,422,cs),
(448,512,o),
(368,524,o),
(346,524,cs),
(289,524,o),
(278,478,o),
(278,456,cs),
(278,422,o),
(323,444,o),
(323,377,cs),
(323,343,o),
(281,170,o),
(255,170,c)
);
}
);
width = 473;
}
);
metricRight = v;
note = y;
unicode = 121;
userData = {
KernOnName = y;
};
},
{
glyphname = z;
kernLeft = "0";
kernRight = "0";
lastChange = "2020-07-24 12:18:50 +0000";
layers = (
{
hints = (
{
horizontal = 1;
place = (0, 75);
place = (0, 75);
type = Stem;
},
{
horizontal = 1;
place = (424, 76);
place = (424, 76);
type = Stem;
},
{
place = (30, 187);
place = (30, 187);
type = Stem;
},
{
horizontal = 1;
place = (-14, 21);
target = up;
type = BottomGhost;
}
);
layerId = m01;
shapes = (
{
closed = 1;
nodes = (
(352,0,ls),
(366,0,o),
(389,-14,o),
(418,-14,cs),
(457,-14,o),
(488,54,o),
(488,95,cs),
(488,121,o),
(476,142,o),
(450,142,cs),
(404,142,o),
(402,75,o),
(276,75,cs),
(249,75,o),
(173,72,o),
(193,97,cs),
(474,440,ls),
(500,472,o),
(492,500,o),
(454,500,cs),
(166,500,ls),
(117,500,o),
(126,513,o),
(92,513,cs),
(53,513,o),
(10,443,o),
(10,394,cs),
(10,376,o),
(15,345,o),
(45,345,cs),
(94,345,o),
(113,424,o),
(219,424,cs),
(251,424,o),
(329,431,o),
(309,406,cs),
(29,60,ls),
(3,28,o),
(0,0,o),
(39,0,cs)
);
}
);
width = 495;
}
);
note = z;
unicode = 122;
userData = {
KernOnName = z;
};
},
{
glyphname = b.ss01;
kernLeft = "0";
kernRight = "0";
lastChange = "2020-07-24 12:08:21 +0000";
layers = (
{
hints = (
{
horizontal = 1;
place = (-1, 72);
place = (-1, 72);
type = Stem;
},
{
horizontal = 1;
place = (429, 73);
place = (429, 73);
type = Stem;
},
{
place = (87, 96);
place = (87, 96);
type = Stem;
},
{
place = (398, 126);
place = (398, 126);
type = Stem;
},
{
place = (87, 113);
place = (87, 113);
type = Stem;
}
);
layerId = m01;
shapes = (
{
closed = 1;
nodes = (
(44,18,o),
(61,-1,o),
(87,-1,cs),
(298,-1,ls),
(415,-1,o),
(524,97,o),
(524,250,cs),
(524,403,o),
(425,502,o),
(298,502,cs),
(238,502,o),
(221,481,o),
(200,480,c),
(200,627,l),
(199,627,l),
(199,647,ls),
(199,675,o),
(171,700,o),
(141,700,cs),
(86,700,ls),
(70,700,o),
(57,689,o),
(57,677,cs),
(57,662,o),
(87,645,o),
(87,614,cs),
(87,117,ls),
(87,87,o),
(44,78,o),
(44,48,cs)
);
},
{
closed = 1;
nodes = (
(200,332,ls),
(200,377,o),
(225,429,o),
(288,429,cs),
(360,429,o),
(398,336,o),
(398,250,cs),
(398,149,o),
(360,71,o),
(287,71,cs),
(261,71,o),
(183,72,o),
(183,90,cs),
(183,108,o),
(200,103,o),
(200,120,cs)
);
}
);
width = 600;
}
);
note = b.ss01;
},
{
glyphname = p.ss01;
kernLeft = "0";
kernRight = "0";
lastChange = "2025-07-23 16:21:45 +0000";
layers = (
{
hints = (
{
horizontal = 1;
place = (-324, 21);
target = up;
type = BottomGhost;
},
{
horizontal = 1;
place = (-58, 62);
place = (-58, 62);
type = Stem;
},
{
horizontal = 1;
place = (361, 66);
place = (361, 66);
type = Stem;
},
{
place = (588, 113);
place = (588, 113);
type = Stem;
},
{
place = (889, 109);
place = (889, 109);
type = Stem;
}
);
layerId = m01;
shapes = (
{
closed = 1;
nodes = (
(191,252,ls),
(191,263,o),
(195,267,o),
(202,267,cs),
(218,267,o),
(248,250,o),
(289,250,cs),
(416,250,o),
(515,349,o),
(515,502,cs),
(515,655,o),
(406,754,o),
(289,754,cs),
(225,754,o),
(221,731,o),
(188,731,cs),
(159,731,o),
(158,752,o),
(134,752,cs),
(80,752,ls),
(64,752,o),
(39,751,o),
(39,727,cs),
(39,697,o),
(78,699,o),
(78,669,cs),
(78,85,ls),
(78,55,o),
(39,57,o),
(39,27,cs),
(39,3,o),
(64,2,o),
(80,2,cs),
(189,2,ls),
(205,2,o),
(230,3,o),
(230,27,cs),
(230,57,o),
(191,55,o),
(191,85,cs)
);
},
{
closed = 1;
nodes = (
(191,576,ls),
(191,625,o),
(222,679,o),
(278,681,cs),
(351,681,o),
(389,603,o),
(389,502,cs),
(389,416,o),
(351,323,o),
(279,323,cs),
(216,323,o),
(191,375,o),
(191,420,cs)
);
}
);
width = 540;
}
);
note = p;
},
{
glyphname = g.ss02;
kernLeft = "0";
kernRight = "0";
lastChange = "2025-07-23 16:29:26 +0000";
layers = (
{
hints = (
{
horizontal = 1;
place = (-253, 64);
place = (-253, 64);
type = Stem;
},
{
horizontal = 1;
place = (34, 63);
place = (34, 63);
type = Stem;
},
{
horizontal = 1;
place = (433, 69);
place = (433, 69);
type = Stem;
},
{
horizontal = 1;
place = (515, 56);
place = (515, 56);
type = Stem;
},
{
place = (1223, 467);
place = (1223, 467);
type = Stem;
}
);
layerId = m01;
shapes = (
{
closed = 1;
nodes = (
(386,68,o),
(492,156,o),
(492,286,cs),
(492,432,o),
(371,463,o),
(371,497,cs),
(371,505,o),
(378,519,o),
(401,519,cs),
(439,519,o),
(414,477,o),
(454,477,cs),
(482,477,o),
(505,495,o),
(505,513,cs),
(505,540,o),
(474,568,o),
(438,568,cs),
(386,568,o),
(352,504,o),
(323,500,cs),
(307,498,o),
(283,502,o),
(261,502,cs),
(137,502,o),
(30,412,o),
(30,282,cs),
(30,213,o),
(64,155,o),
(114,117,c),
(78,80,o),
(51,61,o),
(51,30,cs),
(51,-21,o),
(160,-28,o),
(253,-28,cs),
(324,-28,o),
(387,-28,o),
(387,-66,cs),
(387,-92,o),
(339,-100,o),
(271,-100,cs),
(184,-100,o),
(175,-87,o),
(172,-79,c),
(183,-57,o),
(160,-33,o),
(106,-33,cs),
(58,-33,o),
(38,-48,o),
(38,-71,cs),
(38,-127,o),
(122,-156,o),
(246,-156,cs),
(397,-156,o),
(488,-120,o),
(488,-51,cs),
(488,20,o),
(416,34,o),
(263,34,cs),
(240,34,o),
(145,22,o),
(145,48,cs),
(145,68,o),
(162,76,o),
(171,85,c),
(170,85,l),
(199,74,o),
(229,68,o),
(261,68,cs)
);
},
{
closed = 1;
nodes = (
(330,431,o),
(366,355,o),
(366,285,cs),
(366,203,o),
(330,136,o),
(261,136,cs),
(193,136,o),
(156,211,o),
(156,281,cs),
(156,366,o),
(193,431,o),
(261,431,cs)
);
}
);
width = 535;
}
);
note = g;
},
{
glyphname = j.ss02;
kernLeft = "0";
kernRight = "0";
lastChange = "2025-07-23 16:28:57 +0000";
layers = (
{
hints = (
{
horizontal = 1;
place = (-255, 115);
place = (-255, 115);
type = Stem;
},
{
horizontal = 1;
place = (578, 129);
place = (578, 129);
type = Stem;
},
{
place = (153, 114);
place = (153, 114);
type = Stem;
}
);
layerId = m01;
shapes = (
{
closed = 1;
nodes = (
(174,712,o),
(123,681,o),
(123,634,cs),
(123,596,o),
(159,568,o),
(197,568,cs),
(239,568,o),
(293,598,o),
(293,652,cs),
(293,694,o),
(252,712,o),
(218,712,cs)
);
},
{
closed = 1;
nodes = (
(266,417,ls),
(266,447,o),
(306,445,o),
(306,475,cs),
(306,499,o),
(281,500,o),
(265,500,cs),
(155,500,ls),
(139,500,o),
(114,499,o),
(114,475,cs),
(114,445,o),
(153,447,o),
(153,417,cs),
(153,-21,ls),
(153,-47,o),
(156,-58,o),
(141,-58,cs),
(118,-58,o),
(118,-12,o),
(80,-15,cs),
(53,-17,o),
(37,-45,o),
(41,-76,cs),
(46,-119,o),
(98,-146,o),
(150,-146,cs),
(247,-146,o),
(266,-84,o),
(266,-9,cs)
);
}
);
width = 333;
}
);
note = j;
},
{
glyphname = p.ss02;
kernLeft = "0";
kernRight = "0";
lastChange = "2025-07-23 16:24:12 +0000";
layers = (
{
hints = (
{
horizontal = 1;
place = (-324, 21);
target = up;
type = BottomGhost;
},
{
horizontal = 1;
place = (-58, 62);
place = (-58, 62);
type = Stem;
},
{
horizontal = 1;
place = (361, 66);
place = (361, 66);
type = Stem;
},
{
place = (588, 113);
place = (588, 113);
type = Stem;
},
{
place = (889, 109);
place = (889, 109);
type = Stem;
}
);
layerId = m01;
shapes = (
{
closed = 1;
nodes = (
(191,0,ls),
(191,11,o),
(195,15,o),
(202,15,cs),
(218,15,o),
(248,-2,o),
(289,-2,cs),
(416,-2,o),
(515,97,o),
(515,250,cs),
(515,403,o),
(406,502,o),
(289,502,cs),
(225,502,o),
(221,479,o),
(188,479,cs),
(159,479,o),
(158,500,o),
(134,500,cs),
(80,500,ls),
(64,500,o),
(39,499,o),
(39,475,cs),
(39,445,o),
(78,447,o),
(78,417,cs),
(78,-50,ls),
(78,-80,o),
(39,-78,o),
(39,-108,cs),
(39,-132,o),
(64,-133,o),
(80,-133,cs),
(189,-133,ls),
(205,-133,o),
(230,-132,o),
(230,-108,cs),
(230,-78,o),
(191,-80,o),
(191,-50,cs)
);
},
{
closed = 1;
nodes = (
(191,324,ls),
(191,373,o),
(222,427,o),
(278,429,cs),
(351,429,o),
(389,351,o),
(389,250,cs),
(389,164,o),
(351,71,o),
(279,71,cs),
(216,71,o),
(191,123,o),
(191,168,cs)
);
}
);
width = 540;
}
);
note = p;
},
{
glyphname = q.ss02;
kernLeft = "0";
kernRight = "0";
lastChange = "2025-07-23 16:30:48 +0000";
layers = (
{
hints = (
{
horizontal = 1;
place = (-250, 21);
target = up;
type = BottomGhost;
},
{
horizontal = 1;
place = (16, 62);
place = (16, 62);
type = Stem;
},
{
horizontal = 1;
place = (435, 66);
place = (435, 66);
type = Stem;
},
{
place = (5, 109);
place = (5, 109);
type = Stem;
},
{
place = (302, 113);
place = (302, 113);
type = Stem;
}
);
layerId = m01;
shapes = (
{
closed = 1;
nodes = (
(25,89,o),
(84,-2,o),
(228,-2,cs),
(256,-2,o),
(294,5,o),
(318,17,cs),
(330,23,o),
(337,28,o),
(345,28,c),
(345,-50,ls),
(345,-64,o),
(336,-72,o),
(326,-79,cs),
(316,-86,o),
(302,-93,o),
(302,-108,cs),
(302,-132,o),
(319,-133,o),
(335,-133,cs),
(468,-133,ls),
(484,-133,o),
(501,-132,o),
(501,-108,cs),
(501,-94,o),
(488,-86,o),
(478,-79,cs),
(468,-72,o),
(458,-65,o),
(458,-50,cs),
(458,370,ls),
(458,388,o),
(464,402,o),
(478,416,cs),
(489,427,o),
(501,438,o),
(501,458,cs),
(501,485,o),
(480,501,o),
(450,501,cs),
(231,501,ls),
(98,501,o),
(25,410,o),
(25,246,cs)
);
},
{
closed = 1;
nodes = (
(345,168,ls),
(345,123,o),
(316,79,o),
(258,79,cs),
(181,79,o),
(147,164,o),
(147,245,cs),
(147,350,o),
(189,426,o),
(270,426,cs),
(295,426,ls),
(357,426,o),
(345,387,o),
(345,350,cs)
);
}
);
width = 540;
}
);
note = q;
},
{
glyphname = y.ss02;
kernLeft = "0";
kernRight = "0";
lastChange = "2025-07-23 16:30:05 +0000";
layers = (
{
hints = (
{
horizontal = 1;
place = (-250, 21);
target = up;
type = BottomGhost;
},
{
place = (211, 113);
place = (211, 113);
type = Stem;
},
{
place = (343, 125);
place = (343, 125);
type = Stem;
}
);
layerId = m01;
shapes = (
{
closed = 1;
nodes = (
(185,421,ls),
(172,458,o),
(166,500,o),
(109,500,cs),
(49,500,ls),
(37,500,o),
(15,500,o),
(15,478,cs),
(15,444,o),
(61,445,o),
(71,421,cs),
(129,265,o),
(211,70,o),
(211,20,cs),
(211,-57,ls),
(211,-87,o),
(172,-85,o),
(172,-115,cs),
(172,-139,o),
(197,-140,o),
(213,-140,cs),
(322,-140,ls),
(338,-140,o),
(363,-139,o),
(363,-115,cs),
(363,-85,o),
(324,-87,o),
(324,-57,cs),
(324,20,ls),
(324,70,o),
(468,297,o),
(468,422,cs),
(468,512,o),
(388,524,o),
(366,524,cs),
(309,524,o),
(298,478,o),
(298,456,cs),
(298,422,o),
(343,444,o),
(343,377,cs),
(343,343,o),
(301,170,o),
(275,170,c)
);
}
);
width = 498;
}
);
note = y;
},
{
glyphname = p.ss03;
kernLeft = "0";
kernRight = "0";
lastChange = "2025-07-23 16:40:47 +0000";
layers = (
{
guides = (
{
angle = 180;
pos = (197,-58);
}
);
hints = (
{
horizontal = 1;
place = (-324, 21);
target = up;
type = BottomGhost;
},
{
horizontal = 1;
place = (-58, 62);
place = (-58, 62);
type = Stem;
},
{
horizontal = 1;
place = (361, 66);
place = (361, 66);
type = Stem;
},
{
place = (588, 113);
place = (588, 113);
type = Stem;
},
{
place = (889, 109);
place = (889, 109);
type = Stem;
},
{
horizontal = 1;
place = (-55, 30);
place = (-55, 30);
type = Stem;
}
);
layerId = m01;
shapes = (
{
closed = 1;
nodes = (
(191,56,ls),
(191,67,o),
(195,71,o),
(202,71,cs),
(218,71,o),
(248,54,o),
(299,54,cs),
(416,54,o),
(515,133,o),
(515,276,cs),
(515,419,o),
(406,498,o),
(289,498,cs),
(225,498,o),
(221,475,o),
(188,475,cs),
(159,475,o),
(158,496,o),
(134,496,cs),
(80,496,ls),
(64,496,o),
(39,495,o),
(39,471,cs),
(39,441,o),
(78,443,o),
(78,413,cs),
(78,25,ls),
(78,-5,o),
(39,-3,o),
(39,-33,cs),
(39,-57,o),
(64,-58,o),
(80,-58,cs),
(189,-58,ls),
(205,-58,o),
(230,-57,o),
(230,-33,cs),
(230,-3,o),
(191,-5,o),
(191,25,cs)
);
},
{
closed = 1;
nodes = (
(191,335,ls),
(191,384,o),
(222,428,o),
(278,430,cs),
(351,430,o),
(389,366,o),
(389,275,cs),
(389,179,o),
(351,116,o),
(279,116,cs),
(216,116,o),
(191,168,o),
(191,229,cs)
);
}
);
width = 540;
}
);
note = p;
},
{
glyphname = q.ss03;
kernLeft = "0";
kernRight = "0";
lastChange = "2020-07-24 12:08:21 +0000";
layers = (
{
hints = (
{
horizontal = 1;
place = (-250, 21);
target = up;
type = BottomGhost;
},
{
horizontal = 1;
place = (-2, 73);
place = (-2, 73);
type = Stem;
},
{
horizontal = 1;
place = (429, 72);
place = (429, 72);
type = Stem;
},
{
place = (20, 126);
place = (20, 126);
type = Stem;
},
{
place = (361, 96);
place = (361, 96);
type = Stem;
},
{
place = (344, 113);
place = (344, 113);
type = Stem;
}
);
layerId = m01;
shapes = (
{
closed = 1;
nodes = (
(20,97,o),
(119,-2,o),
(246,-2,cs),
(306,-2,o),
(323,19,o),
(344,20,c),
(344,-167,ls),
(344,-197,o),
(305,-195,o),
(305,-225,cs),
(305,-249,o),
(330,-250,o),
(346,-250,cs),
(455,-250,ls),
(471,-250,o),
(496,-249,o),
(496,-225,cs),
(496,-195,o),
(457,-197,o),
(457,-167,cs),
(457,383,ls),
(457,413,o),
(500,422,o),
(500,452,cs),
(500,482,o),
(483,501,o),
(457,501,cs),
(246,501,ls),
(129,501,o),
(20,403,o),
(20,250,cs)
);
},
{
closed = 1;
nodes = (
(344,168,ls),
(344,123,o),
(319,71,o),
(256,71,cs),
(184,71,o),
(146,164,o),
(146,250,cs),
(146,351,o),
(184,429,o),
(257,429,cs),
(281,428,o),
(340,438,o),
(355,422,cs),
(358,419,o),
(360,414,o),
(361,410,cs),
(362,402,o),
(358,397,o),
(353,391,cs),
(348,385,o),
(344,378,o),
(344,371,cs)
);
}
);
width = 512;
}
);
note = q.ss03;
},
{
glyphname = y.ss03;
kernLeft = "0";
kernRight = "0";
lastChange = "2025-07-23 16:41:04 +0000";
layers = (
{
guides = (
{
pos = (371,-58);
}
);
hints = (
{
horizontal = 1;
place = (-250, 21);
target = up;
type = BottomGhost;
},
{
place = (211, 113);
place = (211, 113);
type = Stem;
},
{
place = (343, 125);
place = (343, 125);
type = Stem;
}
);
layerId = m01;
shapes = (
{
closed = 1;
nodes = (
(185,421,ls),
(169,458,o),
(166,500,o),
(109,500,cs),
(49,500,ls),
(37,500,o),
(15,500,o),
(15,478,cs),
(15,444,o),
(61,445,o),
(71,421,cs),
(129,265,o),
(211,110,o),
(211,60,cs),
(211,25,ls),
(211,-5,o),
(172,-3,o),
(172,-33,cs),
(172,-57,o),
(197,-58,o),
(213,-58,cs),
(322,-58,ls),
(338,-58,o),
(363,-57,o),
(363,-33,cs),
(363,-3,o),
(324,-5,o),
(324,25,cs),
(324,60,ls),
(324,110,o),
(468,297,o),
(468,422,cs),
(468,512,o),
(388,524,o),
(366,524,cs),
(309,524,o),
(298,478,o),
(298,456,cs),
(298,422,o),
(343,444,o),
(343,377,cs),
(343,343,o),
(301,210,o),
(275,210,c)
);
}
);
width = 498;
}
);
note = y;
},
{
glyphname = zero;
kernLeft = "0";
kernRight = "0";
lastChange = "2020-07-24 12:19:23 +0000";
layers = (
{
hints = (
{
horizontal = 1;
place = (0, 700);
place = (0, 700);
type = Stem;
},
{
place = (10, 455);
place = (10, 455);
type = Stem;
}
);
layerId = m01;
shapes = (
{
closed = 1;
nodes = (
(132,704,o),
(20,563,o),
(20,347,cs),
(20,131,o),
(132,-6,o),
(280,-6,cs),
(428,-6,o),
(540,131,o),
(540,347,cs),
(540,563,o),
(428,704,o),
(280,704,cs)
);
},
{
closed = 1;
nodes = (
(191,69,o),
(145,211,o),
(145,348,cs),
(145,486,o),
(191,629,o),
(280,629,cs),
(369,629,o),
(415,486,o),
(415,348,cs),
(415,211,o),
(369,69,o),
(280,69,cs)
);
}
);
width = 560;
}
);
note = zero;
unicode = 48;
},
{
glyphname = one;
kernLeft = "0";
kernRight = "0";
lastChange = "2020-07-24 12:20:26 +0000";
layers = (
{
hints = (
{
horizontal = 1;
place = (0, 21);
target = up;
type = BottomGhost;
},
{
place = (468, 177);
place = (468, 177);
type = Stem;
},
{
place = (651, 204);
place = (651, 204);
type = Stem;
},
{
place = (862, 176);
place = (862, 176);
type = Stem;
}
);
layerId = m01;
shapes = (
{
closed = 1;
nodes = (
(69,11,o),
(86,0,o),
(101,0,cs),
(287,0,ls),
(302,0,o),
(319,11,o),
(319,30,cs),
(319,76,o),
(254,59,o),
(254,104,cs),
(254,660,ls),
(254,697,o),
(244,703,o),
(210,703,cs),
(176,703,o),
(20,625,o),
(20,586,cs),
(20,561,o),
(32,555,o),
(59,555,cs),
(76,555,o),
(98,563,o),
(113,563,cs),
(125,563,o),
(134,558,o),
(134,541,cs),
(134,364,o),
(134,277,o),
(134,104,cs),
(134,59,o),
(69,76,o),
(69,30,cs)
);
}
);
width = 347;
}
);
note = one;
unicode = 49;
},
{
glyphname = two;
kernLeft = "0";
kernRight = "0";
lastChange = "2020-07-24 12:21:49 +0000";
layers = (
{
hints = (
{
horizontal = 1;
place = (-1, 86);
place = (-1, 86);
type = Stem;
},
{
horizontal = 1;
place = (626, 86);
place = (626, 86);
type = Stem;
},
{
place = (49, 119);
place = (49, 119);
type = Stem;
},
{
place = (447, 111);
place = (447, 111);
type = Stem;
}
);
layerId = m01;
shapes = (
{
closed = 1;
nodes = (
(321,423,o),
(209,293,o),
(128,201,cs),
(82,148,o),
(10,69,o),
(10,35,cs),
(10,8,o),
(23,0,o),
(64,0,cs),
(381,0,ls),
(429,0,o),
(463,26,o),
(463,87,cs),
(463,131,o),
(441,151,o),
(417,151,cs),
(356,151,o),
(373,78,o),
(287,78,cs),
(207,78,ls),
(174,78,o),
(135,74,o),
(154,94,cs),
(249,198,o),
(447,380,o),
(447,533,cs),
(447,667,o),
(346,703,o),
(221,703,cs),
(105,703,o),
(17,639,o),
(17,563,cs),
(17,529,o),
(38,496,o),
(80,497,cs),
(115,498,o),
(142,519,o),
(142,562,cs),
(142,583,o),
(136,581,o),
(136,600,cs),
(136,636,o),
(198,638,o),
(214,638,cs),
(302,638,o),
(321,584,o),
(321,530,cs)
);
}
);
width = 483;
}
);
note = two;
unicode = 50;
},
{
glyphname = three;
kernLeft = "0";
kernRight = "0";
lastChange = "2020-07-24 12:21:41 +0000";
layers = (
{
hints = (
{
horizontal = 1;
place = (-10, 65);
place = (-10, 65);
type = Stem;
},
{
horizontal = 1;
place = (637, 65);
place = (637, 65);
type = Stem;
},
{
place = (37, 125);
place = (37, 125);
type = Stem;
},
{
place = (341, 126);
place = (341, 126);
type = Stem;
},
{
place = (360, 125);
place = (360, 125);
type = Stem;
},
{
place = (35, 113);
place = (35, 113);
type = Stem;
}
);
layerId = m01;
shapes = (
{
closed = 1;
nodes = (
(289,315,o),
(335,267,o),
(335,177,cs),
(335,116,o),
(312,55,o),
(211,55,cs),
(175,55,o),
(123,65,o),
(123,107,cs),
(123,123,o),
(132,126,o),
(132,145,cs),
(132,181,o),
(97,193,o),
(74,193,cs),
(28,193,o),
(10,167,o),
(10,134,cs),
(10,53,o),
(97,-10,o),
(214,-10,cs),
(299,-10,o),
(460,10,o),
(460,196,cs),
(460,360,o),
(339,356,o),
(339,376,cs),
(339,396,o),
(442,410,o),
(442,530,cs),
(442,660,o),
(341,702,o),
(216,702,cs),
(100,702,o),
(12,638,o),
(12,562,cs),
(12,528,o),
(33,495,o),
(75,496,cs),
(110,497,o),
(137,518,o),
(137,561,cs),
(137,582,o),
(131,580,o),
(131,599,cs),
(131,635,o),
(193,637,o),
(209,637,cs),
(297,637,o),
(316,588,o),
(316,518,cs),
(316,426,o),
(255,422,o),
(176,391,cs),
(156,383,o),
(151,371,o),
(151,348,cs),
(151,328,o),
(154,315,o),
(176,315,cs)
);
}
);
width = 485;
}
);
note = three;
unicode = 51;
},
{
glyphname = four;
kernLeft = "0";
kernRight = "0";
lastChange = "2020-07-24 12:22:14 +0000";
layers = (
{
hints = (
{
horizontal = 1;
place = (0, 21);
target = up;
type = BottomGhost;
},
{
horizontal = 1;
place = (219, 71);
place = (219, 71);
type = Stem;
},
{
horizontal = 1;
place = (710, -20);
target = down;
type = TopGhost;
},
{
place = (21, 121);
place = (21, 121);
type = Stem;
},
{
place = (315, 123);
place = (315, 123);
type = Stem;
}
);
layerId = m01;
shapes = (
{
closed = 1;
nodes = (
(433,199,ls),
(433,216,o),
(445,219,o),
(462,219,cs),
(483,219,o),
(491,219,o),
(505,219,cs),
(537,219,o),
(540,290,o),
(508,290,cs),
(498,290,o),
(479,290,o),
(463,290,cs),
(446,290,o),
(433,294,o),
(433,311,cs),
(433,661,ls),
(433,695,o),
(407,710,o),
(389,710,cs),
(371,710,o),
(347,696,o),
(329,672,cs),
(22,262,ls),
(7,240,o),
(19,219,o),
(40,219,cs),
(265,219,ls),
(292,219,o),
(310,222,o),
(310,199,cs),
(310,104,ls),
(310,59,o),
(240,76,o),
(240,30,cs),
(240,11,o),
(259,0,o),
(274,0,cs),
(468,0,ls),
(484,0,o),
(503,11,o),
(503,30,cs),
(503,76,o),
(433,59,o),
(433,104,cs)
);
},
{
closed = 1;
nodes = (
(310,311,ls),
(310,287,o),
(293,290,o),
(256,290,cs),
(161,290,ls),
(135,290,o),
(134,293,o),
(140,302,cs),
(292,512,ls),
(298,520,o),
(302,524,o),
(305,524,cs),
(308,524,o),
(310,519,o),
(310,511,cs)
);
}
);
width = 551;
}
);
note = four;
unicode = 52;
},
{
glyphname = five;
kernLeft = "0";
kernRight = "0";
lastChange = "2020-07-24 12:22:40 +0000";
layers = (
{
hints = (
{
horizontal = 1;
place = (-7, 71);
place = (-7, 71);
type = Stem;
},
{
horizontal = 1;
place = (310, 94);
place = (310, 94);
type = Stem;
},
{
horizontal = 1;
place = (620, 81);
place = (620, 81);
type = Stem;
},
{
place = (33, 113);
place = (33, 113);
type = Stem;
},
{
place = (349, 126);
place = (349, 126);
type = Stem;
},
{
horizontal = 1;
place = (392, 69);
place = (392, 69);
type = Stem;
}
);
layerId = m01;
shapes = (
{
closed = 1;
nodes = (
(359,-7,o),
(468,87,o),
(468,238,cs),
(468,362,o),
(390,461,o),
(257,461,cs),
(133,461,o),
(103,379,o),
(108,412,cs),
(132,579,ls),
(136,604,o),
(151,620,o),
(184,620,cs),
(209,620,o),
(251,620,o),
(266,620,cs),
(354,620,o),
(337,547,o),
(399,547,cs),
(424,547,o),
(446,567,o),
(446,611,cs),
(446,672,o),
(428,701,o),
(379,701,cs),
(229,700,l),
(121,700,ls),
(71,700,o),
(66,656,o),
(60,615,cs),
(25,365,ls),
(22,341,o),
(42,310,o),
(81,310,cs),
(133,310,o),
(127,392,o),
(232,392,cs),
(304,392,o),
(342,319,o),
(342,234,cs),
(342,148,o),
(304,64,o),
(221,64,cs),
(185,64,o),
(139,68,o),
(139,110,cs),
(139,126,o),
(148,129,o),
(148,148,cs),
(148,184,o),
(113,196,o),
(90,196,cs),
(44,196,o),
(26,170,o),
(26,137,cs),
(26,56,o),
(113,-7,o),
(230,-7,cs)
);
}
);
width = 488;
}
);
note = five;
unicode = 53;
},
{
glyphname = six;
kernLeft = "0";
kernRight = "0";
lastChange = "2020-07-24 12:22:50 +0000";
layers = (
{
hints = (
{
horizontal = 1;
place = (-6, 70);
place = (-6, 70);
type = Stem;
},
{
horizontal = 1;
place = (392, 70);
place = (392, 70);
type = Stem;
},
{
horizontal = 1;
place = (646, 65);
place = (646, 65);
type = Stem;
},
{
place = (30, 124);
place = (30, 124);
type = Stem;
},
{
place = (374, 119);
place = (374, 119);
type = Stem;
},
{
place = (379, 125);
place = (379, 125);
type = Stem;
}
);
layerId = m01;
shapes = (
{
closed = 1;
nodes = (
(194,462,o),
(154,441,o),
(124,409,c),
(124,440,ls),
(125,571,o),
(187,646,o),
(255,646,cs),
(290,646,o),
(344,635,o),
(344,599,cs),
(344,580,o),
(338,582,o),
(338,559,cs),
(338,532,o),
(364,504,o),
(395,504,cs),
(442,504,o),
(463,533,o),
(463,571,cs),
(463,647,o),
(373,711,o),
(257,711,cs),
(103,711,o),
(0,563,o),
(0,321,cs),
(0,98,o),
(113,-6,o),
(239,-6,cs),
(368,-6,o),
(474,100,o),
(474,238,cs),
(474,378,o),
(376,462,o),
(249,462,cs)
);
},
{
closed = 1;
nodes = (
(167,64,o),
(129,137,o),
(129,230,cs),
(129,308,o),
(167,392,o),
(239,392,cs),
(311,392,o),
(349,319,o),
(349,226,cs),
(349,148,o),
(311,64,o),
(239,64,cs)
);
}
);
width = 503;
}
);
metricLeft = "=null";
note = six;
unicode = 54;
},
{
glyphname = seven;
kernLeft = "0";
kernRight = "0";
lastChange = "2020-07-24 12:08:21 +0000";
layers = (
{
hints = (
{
horizontal = 1;
place = (0, 21);
target = up;
type = BottomGhost;
},
{
horizontal = 1;
place = (625, 76);
place = (625, 76);
type = Stem;
},
{
place = (348, 139);
place = (348, 139);
type = Stem;
}
);
layerId = m01;
shapes = (
{
closed = 1;
nodes = (
(481,619,ls),
(498,660,o),
(481,700,o),
(431,700,cs),
(97,701,ls),
(48,701,o),
(25,677,o),
(25,616,cs),
(25,572,o),
(51,552,o),
(76,552,cs),
(138,552,o),
(121,625,o),
(209,625,cs),
(224,625,o),
(266,625,o),
(291,625,cs),
(324,625,o),
(358,610,o),
(345,580,cs),
(123,61,ls),
(119,52,o),
(116,46,o),
(116,35,cs),
(116,16,o),
(140,0,o),
(159,0,cs),
(301,0,ls),
(316,0,o),
(334,20,o),
(333,35,cs),
(332,47,o),
(327,57,o),
(315,61,cs),
(262,81,o),
(265,97,o),
(268,104,cs)
);
}
);
width = 508;
}
);
note = seven;
unicode = 55;
},
{
glyphname = eight;
kernLeft = "0";
kernRight = "0";
lastChange = "2020-07-24 12:08:21 +0000";
layers = (
{
hints = (
{
horizontal = 1;
place = (-13, 65);
place = (-13, 65);
type = Stem;
},
{
horizontal = 1;
place = (342, 70);
place = (342, 70);
type = Stem;
},
{
horizontal = 1;
place = (642, 65);
place = (642, 65);
type = Stem;
},
{
place = (30, 125);
place = (30, 125);
type = Stem;
},
{
place = (377, 125);
place = (377, 125);
type = Stem;
},
{
place = (353, 120);
place = (353, 120);
type = Stem;
},
{
place = (61, 120);
place = (61, 120);
type = Stem;
}
);
layerId = m01;
shapes = (
{
closed = 1;
nodes = (
(350,-13,o),
(502,9,o),
(502,192,cs),
(502,360,o),
(378,356,o),
(378,376,cs),
(378,396,o),
(473,410,o),
(473,530,cs),
(473,664,o),
(335,707,o),
(265,707,cs),
(195,707,o),
(61,664,o),
(61,530,cs),
(61,410,o),
(154,396,o),
(154,376,cs),
(154,356,o),
(30,360,o),
(30,192,cs),
(30,9,o),
(180,-13,o),
(265,-13,cs)
);
},
{
closed = 1;
nodes = (
(337,642,o),
(353,588,o),
(353,536,cs),
(353,479,o),
(349,412,o),
(265,412,cs),
(181,412,o),
(181,480,o),
(181,537,cs),
(181,589,o),
(193,642,o),
(265,642,cs)
);
},
{
closed = 1;
nodes = (
(170,52,o),
(155,136,o),
(155,191,cs),
(155,246,o),
(168,342,o),
(265,342,cs),
(362,342,o),
(377,246,o),
(377,191,cs),
(377,136,o),
(359,52,o),
(265,52,cs)
);
}
);
width = 532;
}
);
note = eight;
unicode = 56;
},
{
glyphname = nine;
kernLeft = "0";
kernRight = "0";
lastChange = "2020-07-24 12:08:21 +0000";
layers = (
{
hints = (
{
horizontal = 1;
place = (-16, 71);
place = (-16, 71);
type = Stem;
},
{
horizontal = 1;
place = (242, 70);
place = (242, 70);
type = Stem;
},
{
horizontal = 1;
place = (640, 70);
place = (640, 70);
type = Stem;
},
{
place = (54, 125);
place = (54, 125);
type = Stem;
},
{
place = (374, 129);
place = (374, 129);
type = Stem;
},
{
place = (30, 124);
place = (30, 124);
type = Stem;
}
);
layerId = m01;
shapes = (
{
closed = 1;
nodes = (
(303,242,o),
(341,259,o),
(370,286,c),
(369,271,ls),
(362,148,o),
(344,55,o),
(260,55,cs),
(231,55,o),
(173,67,o),
(173,103,cs),
(173,122,o),
(179,120,o),
(179,143,cs),
(179,170,o),
(153,198,o),
(122,198,cs),
(75,198,o),
(54,171,o),
(54,133,cs),
(54,57,o),
(138,-16,o),
(248,-16,cs),
(430,-16,o),
(503,165,o),
(503,383,cs),
(503,606,o),
(390,710,o),
(264,710,cs),
(135,710,o),
(30,604,o),
(30,466,cs),
(30,326,o),
(127,242,o),
(254,242,cs)
);
},
{
closed = 1;
nodes = (
(336,640,o),
(374,567,o),
(374,474,cs),
(374,396,o),
(336,312,o),
(264,312,cs),
(192,312,o),
(154,385,o),
(154,478,cs),
(154,556,o),
(192,640,o),
(264,640,cs)
);
}
);
width = 533;
}
);
note = nine;
unicode = 57;
},
{
glyphname = period;
kernLeft = "0";
kernRight = "0";
lastChange = "2020-07-24 12:08:21 +0000";
layers = (
{
hints = (
{
horizontal = 1;
place = (-20, 150);
place = (-20, 150);
type = Stem;
},
{
place = (18, 150);
place = (18, 150);
type = Stem;
}
);
layerId = m01;
shapes = (
{
closed = 1;
nodes = (
(18,10,o),
(48,-20,o),
(93,-20,cs),
(138,-20,o),
(168,10,o),
(168,55,cs),
(168,100,o),
(138,130,o),
(93,130,cs),
(48,130,o),
(18,100,o),
(18,55,cs)
);
}
);
width = 185;
}
);
note = period;
unicode = 46;
userData = {
KernOnSpecialSpacing = {
L = period;
R = period;
};
};
},
{
glyphname = comma;
kernLeft = "0";
kernRight = "0";
lastChange = "2020-07-24 12:08:21 +0000";
layers = (
{
hints = (
{
horizontal = 1;
place = (-128, 258);
place = (-128, 258);
type = Stem;
},
{
place = (59, 150);
place = (59, 150);
type = Stem;
}
);
layerId = m01;
shapes = (
{
closed = 1;
nodes = (
(59,33,o),
(69,16,o),
(69,-4,cs),
(69,-52,o),
(30,-81,o),
(30,-105,cs),
(30,-119,o),
(47,-128,o),
(68,-128,cs),
(85,-128,o),
(104,-117,o),
(121,-104,c),
(121,-104,o),
(209,-19,o),
(209,55,cs),
(209,100,o),
(179,130,o),
(134,130,cs),
(89,130,o),
(59,100,o),
(59,55,cs)
);
}
);
width = 239;
}
);
note = comma;
unicode = 44;
userData = {
KernOnSpecialSpacing = {
L = period;
R = period;
};
};
},
{
glyphname = colon;
kernLeft = "0";
kernRight = "0";
lastChange = "2020-07-24 12:08:21 +0000";
layers = (
{
hints = (
{
horizontal = 1;
place = (-7, 21);
target = up;
type = BottomGhost;
},
{
horizontal = 1;
place = (305, 145);
place = (305, 145);
type = Stem;
},
{
place = (70, 145);
place = (70, 145);
type = Stem;
},
{
horizontal = 1;
place = (-7, 145);
place = (-7, 145);
type = Stem;
}
);
layerId = m01;
shapes = (
{
closed = 1;
nodes = (
(70,336,o),
(107,305,o),
(142,305,cs),
(178,305,o),
(215,336,o),
(215,377,cs),
(215,419,o),
(178,450,o),
(142,450,cs),
(107,450,o),
(70,419,o),
(70,377,cs)
);
},
{
closed = 1;
nodes = (
(70,24,o),
(107,-7,o),
(142,-7,cs),
(178,-7,o),
(215,24,o),
(215,65,cs),
(215,107,o),
(178,138,o),
(142,138,cs),
(107,138,o),
(70,107,o),
(70,65,cs)
);
}
);
width = 268;
}
);
note = colon;
unicode = 58;
userData = {
KernOnSpecialSpacing = {
L = "spaced-off";
R = "spaced-off";
};
};
},
{
glyphname = semicolon;
kernLeft = "0";
kernRight = "0";
lastChange = "2020-07-24 12:08:21 +0000";
layers = (
{
hints = (
{
horizontal = 1;
place = (-108, 558);
place = (-108, 558);
type = Stem;
},
{
place = (55, 150);
place = (55, 150);
type = Stem;
}
);
layerId = m01;
shapes = (
{
closed = 1;
nodes = (
(58,420,o),
(88,450,o),
(133,450,cs),
(178,450,o),
(208,420,o),
(208,375,cs),
(208,330,o),
(178,300,o),
(133,300,cs),
(88,300,o),
(58,330,o),
(58,375,cs)
);
},
{
closed = 1;
nodes = (
(55,33,o),
(65,16,o),
(65,-4,cs),
(65,-52,o),
(26,-61,o),
(26,-85,cs),
(26,-99,o),
(43,-108,o),
(64,-108,cs),
(81,-108,o),
(100,-97,o),
(117,-84,c),
(117,-84,o),
(205,-18,o),
(205,55,cs),
(205,100,o),
(175,130,o),
(130,130,cs),
(85,130,o),
(55,100,o),
(55,55,cs)
);
}
);
width = 244;
}
);
note = semicolon;
unicode = 59;
userData = {
KernOnSpecialSpacing = {
L = "spaced-off";
R = "spaced-off";
};
};
},
{
glyphname = exclam;
kernLeft = "0";
kernRight = "0";
lastChange = "2020-07-24 12:08:21 +0000";
layers = (
{
hints = (
{
horizontal = 1;
place = (-8, 21);
target = up;
type = BottomGhost;
},
{
horizontal = 1;
place = (715, -20);
target = down;
type = TopGhost;
},
{
place = (40, 146);
place = (40, 146);
type = Stem;
},
{
horizontal = 1;
place = (-8, 146);
place = (-8, 146);
type = Stem;
}
);
layerId = m01;
shapes = (
{
closed = 1;
nodes = (
(58,715,o),
(39,681,o),
(42,636,cs),
(68,253,ls),
(70,217,o),
(88,194,o),
(113,194,cs),
(138,194,o),
(156,217,o),
(158,253,cs),
(184,636,ls),
(187,681,o),
(168,715,o),
(113,715,cs)
);
},
{
closed = 1;
nodes = (
(40,23,o),
(77,-8,o),
(113,-8,cs),
(149,-8,o),
(186,23,o),
(186,65,cs),
(186,107,o),
(149,138,o),
(113,138,cs),
(77,138,o),
(40,107,o),
(40,65,cs)
);
}
);
width = 226;
}
);
note = exclam;
unicode = 33;
userData = {
KernOnSpecialSpacing = {
L = "spaced-off";
};
};
},
{
glyphname = question;
kernLeft = "0";
kernRight = "0";
lastChange = "2020-07-24 12:08:21 +0000";
layers = (
{
hints = (
{
horizontal = 1;
place = (-8, 21);
target = up;
type = BottomGhost;
},
{
horizontal = 1;
place = (657, 65);
place = (657, 65);
type = Stem;
},
{
place = (30, 125);
place = (30, 125);
type = Stem;
},
{
place = (159, 146);
place = (159, 146);
type = Stem;
},
{
place = (334, 126);
place = (334, 126);
type = Stem;
},
{
place = (175, 113);
place = (175, 113);
type = Stem;
},
{
horizontal = 1;
place = (-8, 146);
place = (-8, 146);
type = Stem;
}
);
layerId = m01;
shapes = (
{
closed = 1;
nodes = (
(460,684,o),
(304,722,o),
(234,722,cs),
(118,722,o),
(30,658,o),
(30,582,cs),
(30,548,o),
(51,515,o),
(93,516,cs),
(128,517,o),
(155,538,o),
(155,581,cs),
(155,602,o),
(149,600,o),
(149,619,cs),
(149,655,o),
(211,657,o),
(227,657,cs),
(315,657,o),
(334,598,o),
(334,538,cs),
(334,411,o),
(175,448,o),
(175,304,cs),
(175,241,ls),
(175,205,o),
(201,182,o),
(230,182,cs),
(259,182,o),
(288,206,o),
(288,242,cs),
(288,306,ls),
(288,402,o),
(460,414,o),
(460,550,cs)
);
},
{
closed = 1;
nodes = (
(159,23,o),
(196,-8,o),
(232,-8,cs),
(268,-8,o),
(305,23,o),
(305,65,cs),
(305,107,o),
(268,138,o),
(232,138,cs),
(196,138,o),
(159,107,o),
(159,65,cs)
);
}
);
width = 475;
}
);
note = question;
unicode = 63;
userData = {
KernOnSpecialSpacing = {
L = "spaced-off";
};
};
},
{
glyphname = asterisk;
kernLeft = "0";
kernRight = "0";
lastChange = "2020-07-24 12:08:21 +0000";
layers = (
{
hints = (
{
horizontal = 1;
place = (572, 62);
place = (572, 62);
type = Stem;
},
{
horizontal = 1;
place = (716, -20);
target = down;
type = TopGhost;
},
{
place = (67, 266);
place = (67, 266);
type = Stem;
},
{
place = (162, 76);
place = (162, 76);
type = Stem;
}
);
layerId = m01;
shapes = (
{
closed = 1;
nodes = (
(166,615,l),
(139,625,o),
(86,634,o),
(75,634,cs),
(49,634,o),
(25,620,o),
(25,603,cs),
(25,586,o),
(49,572,o),
(75,572,cs),
(86,572,o),
(139,581,o),
(166,591,c),
(139,583,o),
(93,557,o),
(85,550,cs),
(66,534,o),
(61,510,o),
(76,497,cs),
(82,492,o),
(90,490,o),
(98,490,cs),
(112,490,o),
(126,495,o),
(138,505,cs),
(146,512,o),
(176,551,o),
(187,574,c),
(173,552,o),
(162,507,o),
(162,496,cs),
(162,474,o),
(178,453,o),
(200,453,cs),
(222,453,o),
(238,474,o),
(238,496,cs),
(238,507,o),
(227,552,o),
(213,574,c),
(215,574,l),
(224,551,o),
(254,512,o),
(262,505,cs),
(274,495,o),
(288,490,o),
(302,490,cs),
(310,490,o),
(318,492,o),
(324,497,cs),
(340,510,o),
(334,534,o),
(315,550,cs),
(307,557,o),
(262,583,o),
(234,591,c),
(261,581,o),
(314,572,o),
(326,572,cs),
(351,572,o),
(375,586,o),
(375,603,cs),
(375,620,o),
(351,634,o),
(326,634,cs),
(314,634,o),
(261,625,o),
(234,615,c),
(234,616,l),
(262,623,o),
(307,649,o),
(315,656,cs),
(334,672,o),
(340,696,o),
(324,709,cs),
(318,714,o),
(310,716,o),
(302,716,cs),
(288,716,o),
(274,711,o),
(262,701,cs),
(254,694,o),
(224,656,o),
(215,632,c),
(213,632,l),
(227,654,o),
(238,699,o),
(238,710,cs),
(238,733,o),
(222,753,o),
(200,753,cs),
(178,753,o),
(162,733,o),
(162,710,cs),
(162,699,o),
(173,654,o),
(185,632,c),
(176,655,o),
(146,694,o),
(138,701,cs),
(126,711,o),
(112,716,o),
(98,716,cs),
(90,716,o),
(82,714,o),
(76,709,cs),
(61,696,o),
(66,672,o),
(85,656,cs),
(93,649,o),
(138,623,o),
(166,616,c)
);
}
);
width = 400;
}
);
note = asterisk;
unicode = 42;
userData = {
KernOnSpecialSpacing = {
L = quotes;
R = quotes;
};
};
},
{
glyphname = numbersign;
kernLeft = "0";
kernRight = "0";
lastChange = "2020-07-24 12:08:21 +0000";
layers = (
{
hints = (
{
horizontal = 1;
place = (-2, 21);
target = up;
type = BottomGhost;
},
{
horizontal = 1;
place = (185, 90);
place = (185, 90);
type = Stem;
},
{
horizontal = 1;
place = (407, 90);
place = (407, 90);
type = Stem;
},
{
place = (10, 700);
place = (10, 700);
type = Stem;
},
{
horizontal = 1;
place = (175, 110);
place = (175, 110);
type = Stem;
},
{
horizontal = 1;
place = (397, 110);
place = (397, 110);
type = Stem;
}
);
layerId = m01;
shapes = (
{
closed = 1;
nodes = (
(207,275,l),
(150,274,o),
(120,285,o),
(66,285,cs),
(23,285,o),
(10,255,o),
(10,230,cs),
(10,205,o),
(23,175,o),
(66,175,cs),
(120,175,o),
(135,185,o),
(192,185,c)
);
},
{
closed = 1;
nodes = (
(421,407,ls),
(430,407,o),
(428,400,o),
(426,390,cs),
(411,300,ls),
(409,290,o),
(407,275,o),
(398,275,cs),
(296,275,ls),
(287,275,o),
(291,290,o),
(293,300,cs),
(308,390,ls),
(310,400,o),
(311,407,o),
(320,407,cs)
);
},
{
closed = 1;
nodes = (
(481,185,l),
(535,185,o),
(565,175,o),
(622,175,cs),
(662,175,o),
(692,205,o),
(692,230,cs),
(692,255,o),
(679,285,o),
(639,285,cs),
(582,285,o),
(551,275,o),
(497,275,c)
);
},
{
closed = 1;
nodes = (
(336,497,ls),
(326,497,o),
(328,513,o),
(329,524,cs),
(350,648,ls),
(357,685,o),
(323,698,o),
(300,698,cs),
(277,698,o),
(256,685,o),
(250,648,cs),
(149,48,ls),
(143,11,o),
(177,-2,o),
(199,-2,cs),
(222,-2,o),
(244,11,o),
(250,48,cs),
(268,159,ls),
(270,169,o),
(271,185,o),
(280,185,cs),
(382,185,ls),
(392,185,o),
(389,169,o),
(387,158,cs),
(369,48,ls),
(363,11,o),
(396,-2,o),
(419,-2,cs),
(442,-2,o),
(463,11,o),
(469,48,cs),
(570,648,ls),
(576,685,o),
(543,698,o),
(520,698,cs),
(497,698,o),
(476,685,o),
(469,648,cs),
(449,524,ls),
(447,514,o),
(442,497,o),
(433,497,cs)
);
},
{
closed = 1;
nodes = (
(226,497,l),
(169,497,o),
(138,507,o),
(84,507,cs),
(41,507,o),
(28,477,o),
(28,452,cs),
(28,427,o),
(41,397,o),
(84,397,cs),
(138,397,o),
(154,406,o),
(210,407,c)
);
},
{
closed = 1;
nodes = (
(498,407,l),
(552,407,o),
(582,397,o),
(639,397,cs),
(679,397,o),
(710,427,o),
(710,452,cs),
(710,477,o),
(697,507,o),
(657,507,cs),
(600,507,o),
(567,497,o),
(513,497,c)
);
}
);
width = 785;
}
);
note = numbersign;
unicode = 35;
},
{
glyphname = slash;
kernLeft = "0";
kernRight = "0";
lastChange = "2020-07-24 12:08:21 +0000";
layers = (
{
hints = (
{
horizontal = 1;
place = (-61, 789);
place = (-61, 789);
type = Stem;
},
{
place = (11, 374);
place = (11, 374);
type = Stem;
}
);
layerId = m01;
shapes = (
{
closed = 1;
nodes = (
(332,733,o),
(298,731,o),
(278,680,cs),
(250,610,o),
(246,572,o),
(219,505,cs),
(97,200,ls),
(69,131,o),
(47,102,o),
(19,32,cs),
(-1,-19,o),
(20,-46,o),
(42,-56,cs),
(65,-66,o),
(99,-64,o),
(119,-13,cs),
(147,57,o),
(151,95,o),
(178,163,cs),
(300,468,ls),
(327,536,o),
(349,566,o),
(377,635,cs),
(397,686,o),
(376,713,o),
(354,723,cs)
);
}
);
width = 396;
}
);
note = slash;
unicode = 47;
userData = {
KernOnSpecialSpacing = {
L = slash;
R = slash;
};
};
},
{
glyphname = hyphen;
kernLeft = "0";
kernRight = "0";
lastChange = "2020-07-24 12:08:21 +0000";
layers = (
{
hints = (
{
horizontal = 1;
place = (263, 96);
place = (263, 96);
type = Stem;
},
{
place = (20, 400);
place = (20, 400);
type = Stem;
}
);
layerId = m01;
shapes = (
{
closed = 1;
nodes = (
(20,286,o),
(28,256,o),
(54,256,cs),
(89,256,o),
(107,263,o),
(142,263,cs),
(298,263,ls),
(333,263,o),
(351,256,o),
(386,256,cs),
(412,256,o),
(420,286,o),
(420,311,cs),
(420,336,o),
(412,366,o),
(386,366,cs),
(351,366,o),
(333,359,o),
(298,359,cs),
(142,359,ls),
(107,359,o),
(89,366,o),
(54,366,cs),
(28,366,o),
(20,336,o),
(20,311,cs)
);
}
);
width = 440;
}
);
note = hyphen;
unicode = 45;
userData = {
KernOnSpecialSpacing = {
L = hyphen;
R = hyphen;
};
};
},
{
glyphname = emdash;
kernLeft = "0";
kernRight = "0";
lastChange = "2020-07-24 12:08:21 +0000";
layers = (
{
layerId = m01;
shapes = (
{
closed = 1;
nodes = (
(111,266,o),
(115,236,o),
(163,236,cs),
(230,236,o),
(274,243,o),
(339,243,cs),
(633,243,ls),
(698,243,o),
(740,236,o),
(807,236,cs),
(855,236,o),
(861,266,o),
(861,289,cs),
(861,314,o),
(855,346,o),
(807,346,cs),
(740,346,o),
(698,344,o),
(633,344,cs),
(339,344,ls),
(274,344,o),
(230,346,o),
(163,346,cs),
(115,346,o),
(111,314,o),
(111,289,cs)
);
}
);
width = 1000;
}
);
note = emdash;
unicode = 8212;
userData = {
KernOnSpecialSpacing = {
L = dashes;
R = dashes;
};
};
},
{
glyphname = underscore;
kernLeft = "0";
kernRight = "0";
lastChange = "2020-07-24 12:08:21 +0000";
layers = (
{
hints = (
{
horizontal = 1;
place = (-89, 89);
place = (-89, 89);
type = Stem;
},
{
place = (20, 450);
place = (20, 450);
type = Stem;
}
);
layerId = m01;
shapes = (
{
closed = 1;
nodes = (
(20,-69,o),
(29,-95,o),
(58,-95,cs),
(98,-95,o),
(118,-89,o),
(157,-89,cs),
(333,-89,ls),
(372,-89,o),
(392,-95,o),
(432,-95,cs),
(461,-95,o),
(470,-69,o),
(470,-48,cs),
(470,-26,o),
(461,2,o),
(432,2,cs),
(392,2,o),
(372,0,o),
(333,0,cs),
(157,0,ls),
(118,0,o),
(98,2,o),
(58,2,cs),
(29,2,o),
(20,-26,o),
(20,-48,cs)
);
}
);
width = 490;
}
);
note = underscore;
unicode = 95;
userData = {
KernOnSpecialSpacing = {
L = underscore;
R = underscore;
};
};
},
{
glyphname = parenleft;
kernLeft = "0";
kernRight = "0";
lastChange = "2020-07-24 12:08:21 +0000";
layers = (
{
hints = (
{
horizontal = 1;
place = (-99, 84);
place = (-99, 84);
type = Stem;
},
{
horizontal = 1;
place = (617, 84);
place = (617, 84);
type = Stem;
},
{
place = (20, 135);
place = (20, 135);
type = Stem;
}
);
layerId = m01;
shapes = (
{
closed = 1;
nodes = (
(20,59,o),
(132,-99,o),
(280,-99,cs),
(307,-99,o),
(319,-75,o),
(319,-56,cs),
(319,-30,o),
(306,-15,o),
(280,-15,cs),
(198,-15,o),
(155,146,o),
(155,301,cs),
(155,456,o),
(198,617,o),
(280,617,cs),
(306,617,o),
(319,632,o),
(319,658,cs),
(319,677,o),
(307,701,o),
(280,701,cs),
(132,701,o),
(20,543,o),
(20,300,cs)
);
}
);
width = 334;
}
);
note = parenleft;
unicode = 40;
userData = {
KernOnSpecialSpacing = {
R = parenthesis;
};
};
},
{
glyphname = parenright;
kernLeft = "0";
kernRight = "0";
lastChange = "2020-07-24 12:08:21 +0000";
layers = (
{
hints = (
{
horizontal = 1;
place = (-88, 84);
place = (-88, 84);
type = Stem;
},
{
horizontal = 1;
place = (628, 84);
place = (628, 84);
type = Stem;
},
{
place = (179, 135);
place = (179, 135);
type = Stem;
}
);
layerId = m01;
shapes = (
{
closed = 1;
nodes = (
(314,554,o),
(202,712,o),
(54,712,cs),
(27,712,o),
(15,688,o),
(15,669,cs),
(15,643,o),
(28,628,o),
(54,628,cs),
(136,628,o),
(179,467,o),
(179,312,cs),
(179,157,o),
(136,-4,o),
(54,-4,cs),
(28,-4,o),
(15,-19,o),
(15,-45,cs),
(15,-64,o),
(27,-88,o),
(54,-88,cs),
(202,-88,o),
(314,70,o),
(314,311,cs)
);
}
);
width = 334;
}
);
note = parenright;
unicode = 41;
userData = {
KernOnSpecialSpacing = {
L = parenthesis;
};
};
},
{
glyphname = bracketleft;
kernLeft = "0";
kernRight = "0";
lastChange = "2020-07-24 12:08:21 +0000";
layers = (
{
hints = (
{
horizontal = 1;
place = (-102, 87);
place = (-102, 87);
type = Stem;
},
{
horizontal = 1;
place = (617, 87);
place = (617, 87);
type = Stem;
},
{
place = (40, 118);
place = (40, 118);
type = Stem;
}
);
layerId = m01;
shapes = (
{
closed = 1;
nodes = (
(40,-69,ls),
(40,-99,o),
(68,-102,o),
(98,-102,cs),
(242,-102,ls),
(276,-102,o),
(281,-81,o),
(281,-56,cs),
(281,-31,o),
(268,-15,o),
(242,-15,cs),
(236,-15,ls),
(156,-15,o),
(158,-8,o),
(158,152,cs),
(158,450,ls),
(158,610,o),
(156,617,o),
(236,617,cs),
(242,617,ls),
(268,617,o),
(281,633,o),
(281,658,cs),
(281,683,o),
(276,704,o),
(242,704,cs),
(98,704,ls),
(68,704,o),
(40,701,o),
(40,671,cs)
);
}
);
width = 306;
}
);
note = bracketleft;
unicode = 91;
userData = {
KernOnSpecialSpacing = {
L = NoKerning;
R = parenthesis;
};
};
},
{
glyphname = bracketright;
kernLeft = "0";
kernRight = "0";
lastChange = "2020-07-24 12:08:21 +0000";
layers = (
{
hints = (
{
horizontal = 1;
place = (-102, 87);
place = (-102, 87);
type = Stem;
},
{
horizontal = 1;
place = (617, 87);
place = (617, 87);
type = Stem;
},
{
place = (149, 118);
place = (149, 118);
type = Stem;
}
);
layerId = m01;
shapes = (
{
closed = 1;
nodes = (
(209,-102,ls),
(239,-102,o),
(267,-99,o),
(267,-69,cs),
(267,671,ls),
(267,701,o),
(239,704,o),
(209,704,cs),
(65,704,ls),
(31,704,o),
(26,683,o),
(26,658,cs),
(26,633,o),
(39,617,o),
(65,617,cs),
(71,617,ls),
(151,617,o),
(149,610,o),
(149,450,cs),
(149,152,ls),
(149,-8,o),
(151,-15,o),
(71,-15,cs),
(65,-15,ls),
(39,-15,o),
(26,-31,o),
(26,-56,cs),
(26,-81,o),
(31,-102,o),
(65,-102,cs)
);
}
);
width = 297;
}
);
note = bracketright;
unicode = 93;
userData = {
KernOnSpecialSpacing = {
L = parenthesis;
R = NoKerning;
};
};
},
{
glyphname = quotedblbase;
kernLeft = "0";
kernRight = "0";
lastChange = "2020-07-24 12:08:21 +0000";
layers = (
{
hints = (
{
horizontal = 1;
place = (58, 393);
place = (58, 393);
type = Stem;
},
{
place = (147, 135);
place = (147, 135);
type = Stem;
},
{
place = (417, 135);
place = (417, 135);
type = Stem;
}
);
layerId = m01;
shapes = (
{
closed = 1;
nodes = (
(375,447,o),
(366,451,o),
(356,451,cs),
(341,451,o),
(324,440,o),
(313,429,cs),
(295,411,o),
(279,381,o),
(304,360,cs),
(388,291,ls),
(427,259,o),
(427,249,o),
(388,217,cs),
(304,148,ls),
(279,127,o),
(295,97,o),
(313,79,cs),
(324,68,o),
(340,58,o),
(356,58,cs),
(365,58,o),
(374,62,o),
(382,71,cs),
(435,135,o),
(462,162,o),
(524,217,cs),
(561,250,o),
(562,256,o),
(524,290,cs),
(458,349,o),
(440,368,o),
(382,438,cs)
);
},
{
closed = 1;
nodes = (
(105,447,o),
(96,451,o),
(86,451,cs),
(71,451,o),
(54,440,o),
(43,429,cs),
(25,411,o),
(9,381,o),
(34,360,cs),
(118,291,ls),
(157,259,o),
(157,249,o),
(118,217,cs),
(34,148,ls),
(9,127,o),
(25,97,o),
(43,79,cs),
(54,68,o),
(70,58,o),
(86,58,cs),
(95,58,o),
(104,62,o),
(112,71,cs),
(165,135,o),
(192,162,o),
(254,217,cs),
(291,250,o),
(292,256,o),
(254,290,cs),
(188,349,o),
(170,368,o),
(112,438,cs)
);
}
);
width = 573;
}
);
note = quotedblbase;
unicode = 8222;
userData = {
KernOnSpecialSpacing = {
L = quotes;
R = quotes;
};
};
},
{
glyphname = quotedblleft;
kernLeft = "0";
kernRight = "0";
lastChange = "2020-07-24 12:08:21 +0000";
layers = (
{
hints = (
{
horizontal = 1;
place = (58, 393);
place = (58, 393);
type = Stem;
},
{
place = (38, 135);
place = (38, 135);
type = Stem;
},
{
place = (308, 135);
place = (308, 135);
type = Stem;
}
);
layerId = m01;
shapes = (
{
closed = 1;
nodes = (
(151,368,o),
(132,349,o),
(66,290,cs),
(28,256,o),
(29,250,o),
(66,217,cs),
(128,162,o),
(155,135,o),
(208,71,cs),
(229,46,o),
(259,62,o),
(277,79,cs),
(295,97,o),
(311,127,o),
(286,148,cs),
(202,217,ls),
(163,249,o),
(163,259,o),
(202,291,cs),
(286,360,ls),
(311,381,o),
(295,411,o),
(277,429,cs),
(259,447,o),
(229,463,o),
(208,438,cs)
);
},
{
closed = 1;
nodes = (
(421,368,o),
(402,349,o),
(336,290,cs),
(298,256,o),
(299,250,o),
(336,217,cs),
(398,162,o),
(425,135,o),
(478,71,cs),
(499,46,o),
(529,62,o),
(547,79,cs),
(565,97,o),
(581,127,o),
(556,148,cs),
(472,217,ls),
(433,249,o),
(433,259,o),
(472,291,cs),
(556,360,ls),
(581,381,o),
(565,411,o),
(547,429,cs),
(529,447,o),
(499,463,o),
(478,438,cs)
);
}
);
width = 613;
}
);
note = quotedblleft;
unicode = 8220;
userData = {
KernOnSpecialSpacing = {
L = quotes;
R = quotes;
};
};
},
{
glyphname = quotedblright;
kernLeft = "0";
kernRight = "0";
lastChange = "2020-07-24 12:08:21 +0000";
layers = (
{
hints = (
{
horizontal = 1;
place = (58, 393);
place = (58, 393);
type = Stem;
},
{
place = (19, 135);
place = (19, 135);
type = Stem;
},
{
place = (289, 135);
place = (289, 135);
type = Stem;
}
);
layerId = m01;
shapes = (
{
closed = 1;
nodes = (
(132,368,o),
(113,349,o),
(47,290,cs),
(9,256,o),
(10,250,o),
(47,217,cs),
(109,162,o),
(136,135,o),
(189,71,cs),
(210,46,o),
(240,62,o),
(258,79,cs),
(276,97,o),
(292,127,o),
(267,148,cs),
(183,217,ls),
(144,249,o),
(144,259,o),
(183,291,cs),
(267,360,ls),
(292,381,o),
(276,411,o),
(258,429,cs),
(240,447,o),
(210,463,o),
(189,438,cs)
);
},
{
closed = 1;
nodes = (
(402,368,o),
(383,349,o),
(317,290,cs),
(279,256,o),
(280,250,o),
(317,217,cs),
(379,162,o),
(406,135,o),
(459,71,cs),
(480,46,o),
(510,62,o),
(528,79,cs),
(546,97,o),
(562,127,o),
(537,148,cs),
(453,217,ls),
(414,249,o),
(414,259,o),
(453,291,cs),
(537,360,ls),
(562,381,o),
(546,411,o),
(528,429,cs),
(510,447,o),
(480,463,o),
(459,438,cs)
);
}
);
width = 582;
}
);
note = quotedblright;
unicode = 8221;
userData = {
KernOnSpecialSpacing = {
L = quotes;
R = quotes;
};
};
},
{
glyphname = guillemotleft;
kernLeft = "0";
kernRight = "0";
lastChange = "2020-07-24 12:08:21 +0000";
layers = (
{
hints = (
{
horizontal = 1;
place = (58, 393);
place = (58, 393);
type = Stem;
},
{
place = (21, 135);
place = (21, 135);
type = Stem;
},
{
place = (291, 135);
place = (291, 135);
type = Stem;
}
);
layerId = m01;
shapes = (
{
closed = 1;
nodes = (
(134,368,o),
(115,349,o),
(49,290,cs),
(11,256,o),
(12,250,o),
(49,217,cs),
(111,162,o),
(138,135,o),
(191,71,cs),
(199,62,o),
(208,58,o),
(217,58,cs),
(233,58,o),
(249,68,o),
(260,79,cs),
(278,97,o),
(294,127,o),
(269,148,cs),
(185,217,ls),
(146,249,o),
(146,259,o),
(185,291,cs),
(269,360,ls),
(294,381,o),
(278,411,o),
(260,429,cs),
(249,440,o),
(233,451,o),
(217,451,cs),
(208,451,o),
(199,447,o),
(191,438,cs)
);
},
{
closed = 1;
nodes = (
(404,368,o),
(385,349,o),
(319,290,cs),
(281,256,o),
(282,250,o),
(319,217,cs),
(381,162,o),
(408,135,o),
(461,71,cs),
(469,62,o),
(478,58,o),
(487,58,cs),
(503,58,o),
(519,68,o),
(530,79,cs),
(548,97,o),
(564,127,o),
(539,148,cs),
(455,217,ls),
(416,249,o),
(416,259,o),
(455,291,cs),
(539,360,ls),
(564,381,o),
(548,411,o),
(530,429,cs),
(519,440,o),
(503,451,o),
(487,451,cs),
(478,451,o),
(469,447,o),
(461,438,cs)
);
}
);
width = 509;
}
);
note = guillemotleft;
unicode = 171;
userData = {
KernOnSpecialSpacing = {
L = quotes;
R = quotes;
};
};
},
{
glyphname = guillemotright;
kernLeft = "0";
kernRight = "0";
lastChange = "2020-07-24 12:08:21 +0000";
layers = (
{
hints = (
{
horizontal = 1;
place = (58, 393);
place = (58, 393);
type = Stem;
},
{
place = (149, 135);
place = (149, 135);
type = Stem;
},
{
place = (419, 135);
place = (419, 135);
type = Stem;
}
);
layerId = m01;
shapes = (
{
closed = 1;
nodes = (
(377,447,o),
(368,451,o),
(358,451,cs),
(343,451,o),
(326,440,o),
(315,429,cs),
(297,411,o),
(281,381,o),
(306,360,cs),
(390,291,ls),
(429,259,o),
(429,249,o),
(390,217,cs),
(306,148,ls),
(281,127,o),
(297,97,o),
(315,79,cs),
(326,68,o),
(342,58,o),
(358,58,cs),
(367,58,o),
(376,62,o),
(384,71,cs),
(437,135,o),
(464,162,o),
(526,217,cs),
(563,250,o),
(564,256,o),
(526,290,cs),
(460,349,o),
(442,368,o),
(384,438,cs)
);
},
{
closed = 1;
nodes = (
(107,447,o),
(98,451,o),
(88,451,cs),
(73,451,o),
(56,440,o),
(45,429,cs),
(27,411,o),
(11,381,o),
(36,360,cs),
(120,291,ls),
(159,259,o),
(159,249,o),
(120,217,cs),
(36,148,ls),
(11,127,o),
(27,97,o),
(45,79,cs),
(56,68,o),
(72,58,o),
(88,58,cs),
(97,58,o),
(106,62,o),
(114,71,cs),
(167,135,o),
(194,162,o),
(256,217,cs),
(293,250,o),
(294,256,o),
(256,290,cs),
(190,349,o),
(172,368,o),
(114,438,cs)
);
}
);
width = 509;
}
);
note = guillemotright;
unicode = 187;
userData = {
KernOnSpecialSpacing = {
L = quotes;
R = quotes;
};
};
},
{
glyphname = quotedbl;
kernLeft = "0";
kernRight = "0";
lastChange = "2020-07-24 12:08:21 +0000";
layers = (
{
hints = (
{
horizontal = 1;
place = (58, 393);
place = (58, 393);
type = Stem;
},
{
place = (156, 135);
place = (156, 135);
type = Stem;
},
{
place = (426, 135);
place = (426, 135);
type = Stem;
}
);
layerId = m01;
shapes = (
{
closed = 1;
nodes = (
(384,447,o),
(375,451,o),
(365,451,cs),
(350,451,o),
(333,440,o),
(322,429,cs),
(304,411,o),
(288,381,o),
(313,360,cs),
(397,291,ls),
(436,259,o),
(436,249,o),
(397,217,cs),
(313,148,ls),
(288,127,o),
(304,97,o),
(322,79,cs),
(333,68,o),
(349,58,o),
(365,58,cs),
(374,58,o),
(383,62,o),
(391,71,cs),
(444,135,o),
(471,162,o),
(533,217,cs),
(570,250,o),
(571,256,o),
(533,290,cs),
(467,349,o),
(449,368,o),
(391,438,cs)
);
},
{
closed = 1;
nodes = (
(114,447,o),
(105,451,o),
(95,451,cs),
(80,451,o),
(63,440,o),
(52,429,cs),
(34,411,o),
(18,381,o),
(43,360,cs),
(127,291,ls),
(166,259,o),
(166,249,o),
(127,217,cs),
(43,148,ls),
(18,127,o),
(34,97,o),
(52,79,cs),
(63,68,o),
(79,58,o),
(95,58,cs),
(104,58,o),
(113,62,o),
(121,71,cs),
(174,135,o),
(201,162,o),
(263,217,cs),
(300,250,o),
(301,256,o),
(263,290,cs),
(197,349,o),
(179,368,o),
(121,438,cs)
);
}
);
width = 602;
}
);
note = quotedbl;
unicode = 34;
userData = {
KernOnSpecialSpacing = {
L = quotes;
R = quotes;
};
};
},
{
glyphname = quotesingle;
kernLeft = "0";
kernRight = "0";
lastChange = "2020-07-24 12:08:21 +0000";
layers = (
{
hints = (
{
horizontal = 1;
place = (709, -20);
target = down;
type = TopGhost;
},
{
place = (39, 144);
place = (39, 144);
type = Stem;
}
);
layerId = m01;
shapes = (
{
closed = 1;
nodes = (
(45,556,o),
(18,488,o),
(78,488,cs),
(145,488,o),
(183,599,o),
(183,649,cs),
(183,680,o),
(156,709,o),
(111,709,cs),
(80,709,o),
(37,685,o),
(37,640,cs),
(37,618,o),
(45,615,o),
(45,595,cs)
);
}
);
width = 225;
}
);
note = quotesingle;
unicode = 39;
userData = {
KernOnSpecialSpacing = {
L = quotes;
R = quotes;
};
};
},
{
glyphname = at;
kernLeft = "0";
kernRight = "0";
lastChange = "2020-07-24 12:08:21 +0000";
layers = (
{
hints = (
{
horizontal = 1;
place = (-186, 65);
place = (-186, 65);
type = Stem;
},
{
horizontal = 1;
place = (-1, 66);
place = (-1, 66);
type = Stem;
},
{
horizontal = 1;
place = (297, 72);
place = (297, 72);
type = Stem;
},
{
horizontal = 1;
place = (499, 65);
place = (499, 65);
type = Stem;
},
{
place = (24, 101);
place = (24, 101);
type = Stem;
},
{
place = (186, 130);
place = (186, 130);
type = Stem;
},
{
place = (489, 117);
place = (489, 117);
type = Stem;
},
{
place = (676, 101);
place = (676, 101);
type = Stem;
},
{
place = (479, 131);
place = (479, 131);
type = Stem;
},
{
horizontal = 1;
place = (-1, 72);
place = (-1, 72);
type = Stem;
}
);
layerId = m01;
shapes = (
{
closed = 1;
nodes = (
(489,134,ls),
(489,100,o),
(490,65,o),
(429,65,cs),
(356,65,o),
(316,114,o),
(316,184,cs),
(316,245,o),
(356,297,o),
(426,297,cs),
(496,297,o),
(489,263,o),
(489,235,cs)
);
},
{
closed = 1;
nodes = (
(496,-186,o),
(610,-156,o),
(610,-84,cs),
(610,-54,o),
(590,-30,o),
(544,-30,cs),
(510,-30,o),
(464,-66,o),
(484,-100,c),
(484,-105,o),
(484,-121,o),
(397,-121,cs),
(240,-121,o),
(125,10,o),
(125,180,cs),
(125,365,o),
(206,499,o),
(396,499,cs),
(583,499,o),
(676,370,o),
(676,180,cs),
(676,124,o),
(673,71,o),
(641,71,cs),
(616,71,o),
(606,84,o),
(606,105,cs),
(606,107,o),
(607,314,o),
(605,315,c),
(605,349,o),
(552,375,o),
(521,376,cs),
(502,378,o),
(499,358,o),
(484,358,cs),
(463,358,o),
(444,369,o),
(383,369,cs),
(276,369,o),
(186,296,o),
(186,183,cs),
(186,57,o),
(283,-1,o),
(364,-1,cs),
(454,-1,o),
(449,27,o),
(491,27,cs),
(519,27,o),
(499,-1,o),
(605,-1,cs),
(723,-1,o),
(777,95,o),
(777,181,cs),
(777,412,o),
(619,564,o),
(395,564,cs),
(168,564,o),
(24,414,o),
(24,181,cs),
(24,-37,o),
(198,-186,o),
(398,-186,cs)
);
}
);
width = 802;
}
);
note = at;
unicode = 64;
userData = {
KernOnSpecialSpacing = {
L = symbols;
R = symbols;
};
};
},
{
glyphname = yen;
kernLeft = "0";
kernRight = "0";
lastChange = "2020-07-24 12:08:21 +0000";
layers = (
{
hints = (
{
horizontal = 1;
place = (-250, 21);
target = up;
type = BottomGhost;
},
{
horizontal = 1;
place = (-2, 73);
place = (-2, 73);
type = Stem;
},
{
horizontal = 1;
place = (422, 59);
place = (422, 59);
type = Stem;
},
{
place = (20, 126);
place = (20, 126);
type = Stem;
},
{
place = (344, 113);
place = (344, 113);
type = Stem;
}
);
layerId = m01;
shapes = (
{
closed = 1;
nodes = (
(20,97,o),
(119,-2,o),
(246,-2,cs),
(306,-2,o),
(323,13,o),
(344,20,c),
(344,-167,ls),
(344,-197,o),
(305,-195,o),
(305,-225,cs),
(305,-249,o),
(330,-250,o),
(346,-250,cs),
(455,-250,ls),
(471,-250,o),
(496,-249,o),
(496,-225,cs),
(496,-195,o),
(457,-197,o),
(457,-167,cs),
(457,383,ls),
(457,413,o),
(500,422,o),
(500,452,cs),
(500,482,o),
(483,501,o),
(457,501,cs),
(415,501,ls),
(375,501,o),
(374,481,o),
(347,481,cs),
(308,481,o),
(303,502,o),
(246,502,cs),
(129,502,o),
(20,403,o),
(20,250,cs)
);
},
{
closed = 1;
nodes = (
(344,168,ls),
(344,123,o),
(319,71,o),
(256,71,cs),
(184,71,o),
(146,164,o),
(146,250,cs),
(146,351,o),
(184,422,o),
(277,422,cs),
(319,422,ls),
(412,422,o),
(344,376,o),
(344,324,cs)
);
}
);
width = 572;
}
);
note = yen;
unicode = 165;
userData = {
KernOnSpecialSpacing = {
L = symbols;
R = symbols;
};
};
},
{
glyphname = plus;
kernLeft = "0";
kernRight = "0";
lastChange = "2020-07-24 12:08:21 +0000";
layers = (
{
hints = (
{
horizontal = 1;
place = (243, 90);
place = (243, 90);
type = Stem;
},
{
place = (242, 90);
place = (242, 90);
type = Stem;
}
);
layerId = m01;
shapes = (
{
closed = 1;
nodes = (
(312,41,o),
(345,51,o),
(342,83,cs),
(332,191,ls),
(327,241,o),
(333,248,o),
(383,243,cs),
(492,233,ls),
(524,230,o),
(534,263,o),
(534,288,cs),
(534,313,o),
(524,346,o),
(492,343,cs),
(384,333,ls),
(334,328,o),
(327,335,o),
(332,385,cs),
(342,493,ls),
(345,525,o),
(312,535,o),
(287,535,cs),
(262,535,o),
(229,525,o),
(232,493,cs),
(242,385,ls),
(247,335,o),
(240,328,o),
(190,333,cs),
(82,343,ls),
(50,346,o),
(40,313,o),
(40,288,cs),
(40,263,o),
(50,230,o),
(82,233,cs),
(191,243,ls),
(241,248,o),
(247,241,o),
(242,191,cs),
(232,83,ls),
(229,51,o),
(262,41,o),
(287,41,cs)
);
}
);
width = 575;
}
);
note = plus;
unicode = 43;
userData = {
KernOnSpecialSpacing = {
L = math;
R = math;
};
};
},
{
glyphname = divide;
kernLeft = "0";
kernRight = "0";
lastChange = "2020-07-24 12:08:21 +0000";
layers = (
{
hints = (
{
horizontal = 1;
place = (28, 145);
place = (28, 145);
type = Stem;
},
{
horizontal = 1;
place = (231, 96);
place = (231, 96);
type = Stem;
},
{
horizontal = 1;
place = (392, 145);
place = (392, 145);
type = Stem;
},
{
place = (219, 145);
place = (219, 145);
type = Stem;
}
);
layerId = m01;
shapes = (
{
closed = 1;
nodes = (
(219,423,o),
(256,392,o),
(291,392,cs),
(327,392,o),
(364,423,o),
(364,464,cs),
(364,506,o),
(327,537,o),
(291,537,cs),
(256,537,o),
(219,506,o),
(219,464,cs)
);
},
{
closed = 1;
nodes = (
(219,59,o),
(256,28,o),
(291,28,cs),
(327,28,o),
(364,59,o),
(364,100,cs),
(364,142,o),
(327,173,o),
(291,173,cs),
(256,173,o),
(219,142,o),
(219,100,cs)
);
},
{
closed = 1;
nodes = (
(40,254,o),
(50,224,o),
(83,224,cs),
(125,224,o),
(148,231,o),
(191,231,cs),
(383,231,ls),
(427,231,o),
(450,224,o),
(492,224,cs),
(524,224,o),
(534,254,o),
(534,279,cs),
(534,304,o),
(524,334,o),
(492,334,cs),
(450,334,o),
(427,327,o),
(383,327,cs),
(191,327,ls),
(148,327,o),
(125,334,o),
(83,334,cs),
(50,334,o),
(40,304,o),
(40,279,cs)
);
}
);
width = 575;
}
);
note = divide;
unicode = 247;
userData = {
KernOnSpecialSpacing = {
L = math;
R = math;
};
};
},
{
glyphname = equal;
kernLeft = "0";
kernRight = "0";
lastChange = "2020-07-24 12:08:21 +0000";
layers = (
{
hints = (
{
horizontal = 1;
place = (118, 96);
place = (118, 96);
type = Stem;
},
{
horizontal = 1;
place = (358, 96);
place = (358, 96);
type = Stem;
},
{
place = (40, 494);
place = (40, 494);
type = Stem;
}
);
layerId = m01;
shapes = (
{
closed = 1;
nodes = (
(40,381,o),
(50,351,o),
(83,351,cs),
(125,351,o),
(148,358,o),
(191,358,cs),
(383,358,ls),
(427,358,o),
(450,351,o),
(492,351,cs),
(524,351,o),
(534,381,o),
(534,406,cs),
(534,431,o),
(524,461,o),
(492,461,cs),
(450,461,o),
(427,454,o),
(383,454,cs),
(191,454,ls),
(148,454,o),
(125,461,o),
(83,461,cs),
(50,461,o),
(40,431,o),
(40,406,cs)
);
},
{
closed = 1;
nodes = (
(40,141,o),
(50,111,o),
(83,111,cs),
(125,111,o),
(148,118,o),
(191,118,cs),
(383,118,ls),
(427,118,o),
(450,111,o),
(492,111,cs),
(524,111,o),
(534,141,o),
(534,166,cs),
(534,191,o),
(524,221,o),
(492,221,cs),
(450,221,o),
(427,214,o),
(383,214,cs),
(191,214,ls),
(148,214,o),
(125,221,o),
(83,221,cs),
(50,221,o),
(40,191,o),
(40,166,cs)
);
}
);
width = 575;
}
);
note = equal;
unicode = 61;
userData = {
KernOnSpecialSpacing = {
L = math;
R = math;
};
};
},
{
glyphname = greater;
kernLeft = "0";
kernRight = "0";
lastChange = "2020-07-24 12:08:21 +0000";
layers = (
{
hints = (
{
horizontal = 1;
place = (108, 393);
place = (108, 393);
type = Stem;
},
{
place = (146, 135);
place = (146, 135);
type = Stem;
}
);
layerId = m01;
shapes = (
{
closed = 1;
nodes = (
(90,513,o),
(60,497,o),
(42,479,cs),
(24,461,o),
(8,431,o),
(33,410,cs),
(117,341,ls),
(156,309,o),
(156,299,o),
(117,267,cs),
(33,198,ls),
(8,177,o),
(24,147,o),
(42,129,cs),
(60,112,o),
(90,96,o),
(111,121,cs),
(164,185,o),
(191,212,o),
(253,267,cs),
(290,300,o),
(291,306,o),
(253,340,cs),
(187,399,o),
(168,418,o),
(111,488,cs)
);
}
);
width = 302;
}
);
note = greater;
unicode = 62;
userData = {
KernOnSpecialSpacing = {
L = math;
R = math;
};
};
},
{
glyphname = less;
kernLeft = "0";
kernRight = "0";
lastChange = "2020-07-24 12:08:21 +0000";
layers = (
{
hints = (
{
horizontal = 1;
place = (108, 393);
place = (108, 393);
type = Stem;
},
{
place = (21, 135);
place = (21, 135);
type = Stem;
}
);
layerId = m01;
shapes = (
{
closed = 1;
nodes = (
(134,418,o),
(115,399,o),
(49,340,cs),
(11,306,o),
(12,300,o),
(49,267,cs),
(111,212,o),
(138,185,o),
(191,121,cs),
(212,96,o),
(242,112,o),
(260,129,cs),
(278,147,o),
(294,177,o),
(269,198,cs),
(185,267,ls),
(146,299,o),
(146,309,o),
(185,341,cs),
(269,410,ls),
(294,431,o),
(278,461,o),
(260,479,cs),
(242,497,o),
(212,513,o),
(191,488,cs)
);
}
);
width = 302;
}
);
note = less;
unicode = 60;
userData = {
KernOnSpecialSpacing = {
L = math;
R = math;
};
};
},
{
glyphname = asciicircum;
kernLeft = "0";
kernRight = "0";
lastChange = "2020-07-24 12:08:21 +0000";
layers = (
{
hints = (
{
horizontal = 1;
place = (448, 135);
place = (448, 135);
type = Stem;
},
{
place = (145, 394);
place = (145, 394);
type = Stem;
}
);
layerId = m01;
shapes = (
{
closed = 1;
nodes = (
(456,470,o),
(437,489,o),
(378,555,cs),
(344,593,o),
(338,592,o),
(305,555,cs),
(250,493,o),
(223,466,o),
(158,413,cs),
(133,392,o),
(149,362,o),
(167,344,cs),
(185,326,o),
(215,310,o),
(236,335,cs),
(305,419,ls),
(337,458,o),
(347,458,o),
(379,419,cs),
(448,335,ls),
(469,310,o),
(499,326,o),
(517,344,cs),
(535,362,o),
(551,392,o),
(526,413,cs)
);
}
);
width = 572;
}
);
note = asciicircum;
unicode = 94;
userData = {
KernOnSpecialSpacing = {
L = math;
R = math;
};
};
},
{
glyphname = bdpq_comp;
kernLeft = "0";
kernRight = "0";
lastChange = "2020-07-24 12:08:21 +0000";
layers = (
{
hints = (
{
horizontal = 1;
place = (-2, 73);
place = (-2, 73);
type = Stem;
},
{
horizontal = 1;
place = (429, 73);
place = (429, 73);
type = Stem;
},
{
place = (55, 113);
place = (55, 113);
type = Stem;
},
{
place = (366, 126);
place = (366, 126);
type = Stem;
},
{
horizontal = 1;
place = (30, 41);
place = (30, 41);
type = Stem;
}
);
layerId = m01;
shapes = (
{
closed = 1;
nodes = (
(55,385,l),
(55,222,l),
(141,18,l),
(148,25,o),
(154,30,o),
(165,30,cs),
(187,30,o),
(202,-2,o),
(266,-2,cs),
(383,-2,o),
(492,97,o),
(492,250,cs),
(492,403,o),
(393,502,o),
(266,502,cs),
(206,502,o),
(189,481,o),
(168,480,c),
(168,489,l)
);
},
{
closed = 1;
nodes = (
(168,332,ls),
(168,377,o),
(193,429,o),
(256,429,cs),
(328,429,o),
(366,336,o),
(366,250,cs),
(366,149,o),
(328,71,o),
(255,71,cs),
(199,73,o),
(168,127,o),
(168,176,cs)
);
}
);
width = 512;
}
);
note = bdpq_comp;
},
{
glyphname = halfserif_lc;
kernLeft = "0";
kernRight = "0";
lastChange = "2020-07-24 12:08:21 +0000";
layers = (
{
hints = (
{
horizontal = 1;
place = (0, 95);
place = (0, 95);
type = Stem;
},
{
place = (394, 65);
place = (394, 65);
type = Stem;
}
);
layerId = m01;
shapes = (
{
closed = 1;
nodes = (
(459,95,l),
(394,95,l),
(394,0,l),
(457,0,ls),
(473,0,o),
(498,1,o),
(498,25,cs),
(498,55,o),
(459,53,o),
(459,83,cs)
);
}
);
width = 518;
}
);
note = halfserif_lc;
},
{
glyphname = serif_lc;
kernLeft = "0";
kernRight = "0";
lastChange = "2020-07-24 12:08:21 +0000";
layers = (
{
hints = (
{
horizontal = 1;
place = (0, 95);
place = (0, 95);
type = Stem;
},
{
place = (346, 113);
place = (346, 113);
type = Stem;
}
);
layerId = m01;
shapes = (
{
closed = 1;
nodes = (
(459,95,l),
(346,95,l),
(346,83,ls),
(346,53,o),
(307,55,o),
(307,25,cs),
(307,1,o),
(332,0,o),
(348,0,cs),
(457,0,ls),
(473,0,o),
(498,1,o),
(498,25,cs),
(498,55,o),
(459,53,o),
(459,83,cs)
);
}
);
width = 1036;
}
);
note = serif_lc;
},
{
glyphname = seriftop_lc;
kernLeft = "0";
kernRight = "0";
lastChange = "2020-07-24 12:08:21 +0000";
layers = (
{
hints = (
{
horizontal = 1;
place = (591, 109);
place = (591, 109);
type = Stem;
},
{
place = (55, 112);
place = (55, 112);
type = Stem;
}
);
layerId = m01;
shapes = (
{
closed = 1;
nodes = (
(55,591,l),
(168,591,l),
(167,647,ls),
(167,675,o),
(139,700,o),
(109,700,cs),
(54,700,ls),
(38,700,o),
(25,689,o),
(25,677,cs),
(25,662,o),
(55,645,o),
(55,614,cs)
);
}
);
width = 229;
}
);
note = seriftop_lc;
},
